<?xml version="1.0" standalone="no"?>
<!DOCTYPE svg PUBLIC "-//W3C//DTD SVG 1.1//EN" "http://www.w3.org/Graphics/SVG/1.1/DTD/svg11.dtd" >
<svg xmlns="http://www.w3.org/2000/svg">
<metadata></metadata>
<defs>
<font id="neo_sansregular" horiz-adv-x="1239" >
<font-face units-per-em="2048" ascent="1638" descent="-410" />
<missing-glyph horiz-adv-x="505" />
<glyph horiz-adv-x="0" />
<glyph horiz-adv-x="682" />
<glyph unicode=" "  horiz-adv-x="505" />
<glyph unicode="&#x09;" horiz-adv-x="505" />
<glyph unicode="&#xa0;" horiz-adv-x="505" />
<glyph unicode="!" horiz-adv-x="444" d="M131 1501q0 16 12 27.5t29 11.5h102q17 0 29 -11.5t12 -27.5l-16 -1065q0 -16 -11.5 -27.5t-27.5 -11.5h-74q-17 0 -29 11.5t-12 27.5zM135 39v192q0 17 11.5 28t27.5 11h98q16 0 27.5 -11t11.5 -28v-192q0 -39 -39 -39h-98q-16 0 -27.5 11t-11.5 28z" />
<glyph unicode="&#x22;" horiz-adv-x="741" d="M59 1096q0 10 2 18l95 387q8 39 41 39h114q23 0 23 -22q0 -9 -2 -17l-119 -387q-11 -39 -39 -39h-96q-19 0 -19 21zM408 1096q0 10 2 18l94 387q8 39 41 39h114q23 0 23 -22q0 -9 -2 -17l-119 -387q-11 -39 -39 -39h-96q-18 0 -18 21z" />
<glyph unicode="#" horiz-adv-x="1351" d="M94 461v4l4 43q4 39 41 39h191l37 414h-193q-33 0 -33 38v5l4 45q4 38 41 38h191l35 396q6 39 39 39h92q14 0 22 -10t8 -25v-4l-34 -396h317l35 396q6 39 39 39h90q31 0 31 -35v-4l-35 -396h201q32 0 32 -38v-5l-4 -45q-4 -38 -41 -38h-198l-37 -414h200q33 0 33 -39v-4 l-4 -43q-4 -39 -41 -39h-201l-32 -383q-6 -39 -37 -39h-90q-15 0 -24 10t-9 25v4l33 383h-318l-33 -383q-6 -39 -36 -39h-93q-14 0 -23 10t-9 25v4l32 383h-190q-33 0 -33 39zM492 547h317l37 414h-318z" />
<glyph unicode="$" d="M160 1174q0 310 368 356v176q0 16 12 28.5t29 12.5h97q16 0 28.5 -12.5t12.5 -28.5v-170q196 -10 299 -27q34 -6 34 -34v-89q0 -32 -34 -32h-5q-288 18 -352 18q-60 0 -103 -4t-82.5 -16.5t-63.5 -34t-38 -57.5t-14 -86q0 -34 10 -62t30 -50.5t37.5 -37t45.5 -34.5 q41 -28 100 -64l189 -113q171 -101 250 -201q71 -90 71 -217q0 -179 -98.5 -277t-275.5 -124v-193q0 -17 -12.5 -29t-28.5 -12h-97q-17 0 -29 12t-12 29v185q-148 3 -292 28q-23 4 -31 10.5t-8 26.5v84q0 15 9.5 24t24.5 9h7q32 -2 102.5 -7t127.5 -8t107 -3q152 0 232 56 t80 189q0 37 -10 67t-31 54.5t-39 39.5t-49 37q-29 22 -117 77l-199 121q-141 86 -212 173q-70 86 -70 210z" />
<glyph unicode="%" horiz-adv-x="1626" d="M92 1016v190q0 158 68.5 244t208.5 86q139 0 206.5 -85.5t67.5 -244.5v-190q0 -157 -68 -244.5t-206 -87.5q-139 0 -208 87.5t-69 244.5zM219 1016q0 -103 34.5 -159t115.5 -56q80 0 113.5 55.5t33.5 159.5v190q0 104 -33.5 159.5t-113.5 55.5q-81 0 -115.5 -56 t-34.5 -159v-190zM299 8q0 14 8 25l856 1450q2 3 5.5 9t5 8.5t5 7t6 6.5t6.5 4t8.5 3t10.5 1h105q16 0 16 -13q0 -6 -10 -26l-856 -1450l-4 -8l-4 -8t-4 -7t-5 -6.5t-5 -4.5t-6 -4t-7.5 -2t-9.5 -1h-101q-20 0 -20 16zM983 317v191q0 158 68.5 245t208.5 87q139 0 206.5 -87 t67.5 -245v-191q0 -157 -67.5 -244t-206.5 -87t-208 87t-69 244zM1110 317q0 -103 34.5 -159t115.5 -56q80 0 113.5 55.5t33.5 159.5v191q0 104 -33.5 159.5t-113.5 55.5q-81 0 -115.5 -56t-34.5 -159v-191z" />
<glyph unicode="&#x26;" horiz-adv-x="1388" d="M109 360v17q0 104 42 175t119 134q54 44 133 94l-14 17q-51 59 -73.5 86t-53.5 72.5t-52 88.5q-34 69 -34 150v16q0 85 32.5 149t91.5 102t135.5 56.5t170.5 18.5q135 0 232.5 -47t143.5 -136q32 -61 32 -143v-16q0 -52 -11.5 -94.5t-35.5 -77.5t-47.5 -59.5t-61.5 -56.5 q-56 -48 -158 -118l-57 -38l371 -400q80 145 80 361v28q0 33 32 33h88q35 0 35 -33v-28q0 -281 -129 -471l183 -195q10 -10 10 -22q0 -10 -7 -16.5t-16 -6.5h-141q-19 0 -33 14l-102 111q-161 -139 -404 -139q-162 0 -280 49.5t-178 148.5q-43 71 -43 176zM297 360 q0 -119 87.5 -176t225.5 -57q184 0 305 104l-407 437q-96 -61 -127 -91q-84 -78 -84 -200v-17zM344 1194q0 -61 18.5 -100.5t59.5 -93.5q31 -41 96 -113l21 -23l69 43q6 4 28 18t29 18t25 16t26 18t22 17t23 19t19.5 19t19.5 22q44 55 44 140v16q0 189 -238 189 q-123 0 -192.5 -43t-69.5 -146v-16z" />
<glyph unicode="'" horiz-adv-x="393" d="M59 1096q0 10 2 18l95 387q8 39 41 39h114q23 0 23 -22q0 -9 -2 -17l-119 -387q-11 -39 -39 -39h-96q-19 0 -19 21z" />
<glyph unicode="(" horiz-adv-x="624" d="M123 543v26q0 421 166 758q52 106 121 191q11 14 18.5 18t28.5 4h96q20 0 20 -16q0 -10 -6 -21q-264 -387 -264 -934v-26q0 -547 264 -934q6 -11 6 -21q0 -16 -20 -16h-96q-21 0 -28.5 4t-18.5 18q-136 165 -211.5 411.5t-75.5 537.5z" />
<glyph unicode=")" horiz-adv-x="624" d="M80 -412q0 10 6 21q264 387 264 934v26q0 547 -264 934q-6 11 -6 21q0 16 20 16h97q21 0 28.5 -4t18.5 -18q136 -165 211 -411.5t75 -537.5v-26q0 -423 -165 -758q-52 -106 -121 -191q-11 -14 -18.5 -18t-28.5 -4h-97q-20 0 -20 16z" />
<glyph unicode="*" horiz-adv-x="952" d="M96 1225q0 3 1 5t1 5l19 59q6 21 26 21q8 0 19 -4l254 -84v268q0 39 30 39h62q31 0 31 -39l-2 -268l256 84q11 4 18 4q21 0 27 -21l18 -59q2 -6 2 -10q0 -20 -29 -31l-256 -80l158 -217q10 -14 10 -27q0 -12 -12 -22l-49 -37q-8 -6 -16 -6q-17 0 -31 20l-156 217 l-155 -217q-14 -20 -31 -20q-7 0 -17 6l-51 37q-12 10 -12 22q0 13 10 27l160 217l-254 80q-31 10 -31 31z" />
<glyph unicode="+" d="M154 760v82q0 32 41 32h350v353q0 17 8.5 29t24.5 12h81q16 0 24.5 -12t8.5 -29v-353h352q41 0 41 -32v-82q0 -16 -11.5 -24.5t-29.5 -8.5h-352v-350q0 -17 -8.5 -29t-24.5 -12h-81q-16 0 -24.5 12t-8.5 29v350h-350q-17 0 -29 8.5t-12 24.5z" />
<glyph unicode="," horiz-adv-x="438" d="M41 -176q0 8 2 14l117 387q12 39 41 39h118q27 0 27 -22q0 -6 -4 -17l-154 -387q-1 -2 -3.5 -8.5t-3.5 -9t-3.5 -7t-4.5 -6t-5.5 -4t-8 -3.5t-9.5 -1h-84q-25 0 -25 25z" />
<glyph unicode="-" horiz-adv-x="681" d="M98 559v80q0 16 11 26.5t28 10.5h408q39 0 39 -37v-80q0 -35 -39 -35h-408q-39 0 -39 35z" />
<glyph unicode="." horiz-adv-x="438" d="M131 43v190q0 17 11.5 28t27.5 11h98q16 0 27.5 -11t11.5 -28v-190q0 -17 -11.5 -29t-27.5 -12h-98q-16 0 -27.5 12t-11.5 29z" />
<glyph unicode="/" horiz-adv-x="727" d="M47 29q0 6 2 12l465 1440q11 41 35 41h104q13 0 21 -8.5t8 -20.5q0 -6 -2 -12l-463 -1440q-11 -41 -37 -41h-104q-13 0 -21 8.5t-8 20.5z" />
<glyph unicode="0" d="M117 623v276q0 637 504 637q501 0 501 -637v-276q0 -637 -501 -637q-504 0 -504 637zM305 623q0 -480 316 -480q315 0 315 480v276q0 104 -14.5 185.5t-48.5 150t-98 106t-154 37.5q-316 0 -316 -479v-276z" />
<glyph unicode="1" d="M268 1231v104q0 4 1 7.5t1.5 5t4 4.5t4 3.5t5.5 3.5l5 3l309 147q26 13 43 13h84q17 0 28 -11t11 -28v-1442q0 -17 -10.5 -29t-26.5 -12h-113q-16 0 -26 12t-10 29v1288l-265 -115q-15 -6 -26 -6q-19 0 -19 23z" />
<glyph unicode="2" d="M164 39v166q0 97 22.5 178t66.5 145.5t97.5 115t126.5 99.5l207 140q5 3 28 19t29 20t24 17t26 20t21 18.5t22.5 22.5t18.5 23q42 56 42 146q0 121 -76 166t-231 45q-157 0 -363 -30h-8q-33 0 -33 36v72q0 27 39 37q156 41 365 41q117 0 203.5 -18.5t152.5 -60 t99.5 -113.5t33.5 -175q0 -122 -61 -210q-63 -90 -205 -185l-197 -133q-48 -32 -75 -51.5t-66 -52.5t-60.5 -63t-43.5 -71t-31.5 -90t-9.5 -108v-43h690q17 0 29 -9.5t12 -25.5v-90q0 -16 -12 -26.5t-29 -10.5h-813q-17 0 -29 11.5t-12 27.5z" />
<glyph unicode="3" d="M172 66v69q0 35 35 35h6q220 -29 344 -29q164 0 242 65.5t78 217.5v43q0 115 -63 182.5t-177 67.5h-373q-39 0 -39 37v71q0 39 39 39h373q119 0 179.5 63t60.5 181v29q0 136 -78 189.5t-242 53.5q-39 0 -72.5 -1.5t-72.5 -5t-59 -5.5t-71 -9t-69 -9h-6q-35 0 -35 34v72 q0 28 39 39q182 41 346 41q119 0 209 -20t159.5 -65t105.5 -124t36 -190v-29q0 -113 -53 -195t-142 -125q90 -44 142.5 -124.5t52.5 -196.5v-43q0 -221 -136 -329.5t-374 -108.5q-164 0 -346 41q-39 10 -39 39z" />
<glyph unicode="4" d="M80 485v78q0 43 24 76l607 850q23 33 59 33h121q53 0 53 -45v-916h178q17 0 28 -10.5t11 -26.5v-82q0 -36 -39 -36h-178v-365q0 -17 -9.5 -29t-25.5 -12h-118q-16 0 -25.5 12t-9.5 29v365h-592q-47 0 -65.5 17t-18.5 62zM252 573q0 -12 16 -12h490v701q0 12 -8 12h-2 q-10 0 -17 -12l-473 -672q-6 -8 -6 -17z" />
<glyph unicode="5" d="M160 63v76q0 31 30 31h11q174 -29 358 -29q168 0 251 79.5t83 242.5v31q0 69 -20.5 118.5t-55 79.5t-91 47t-117 23t-144.5 6h-246q-14 0 -23.5 10.5t-9.5 24.5v2l58 682q5 35 41 35h704q17 0 29 -9.5t12 -25.5v-90q0 -16 -12 -24.5t-29 -8.5h-588l-32 -442h96 q92 0 167.5 -8t147 -26t125 -50t94 -78.5t61.5 -113.5t21 -152v-31q0 -232 -138.5 -354.5t-383.5 -122.5q-205 0 -360 37q-19 4 -29 12.5t-10 27.5z" />
<glyph unicode="6" d="M123 567v359q0 304 125.5 457t408.5 153q198 0 353 -35q47 -11 47 -39v-80q0 -36 -37 -36q-3 0 -6 1t-6 1q-154 32 -351 32q-159 0 -241 -66t-99 -204q-10 -80 -10 -184v-23q184 41 309 41q238 0 370 -103.5t132 -324.5v-12q0 -248 -127.5 -383t-372.5 -135 q-249 0 -372 151t-123 430zM307 567q0 -103 13.5 -177t47.5 -133.5t96 -89.5t154 -30q166 0 241 93t75 274v12q0 144 -83.5 213.5t-234.5 69.5q-132 0 -309 -37v-195z" />
<glyph unicode="7" d="M150 1397v86q0 16 11.5 27.5t28.5 11.5h748q154 0 154 -129q0 -50 -27 -107l-590 -1255q-15 -31 -45 -31h-123q-31 0 -31 31q0 8 7 22l618 1286q2 2 2 9q0 14 -14 14h-699q-17 0 -28.5 9.5t-11.5 25.5z" />
<glyph unicode="8" d="M113 424v39q0 112 56 198.5t142 133.5q-90 45 -142 125.5t-52 193.5v19q0 104 36.5 182.5t103.5 126t155.5 71t197.5 23.5h21q109 0 197.5 -23.5t155.5 -71t103.5 -126t36.5 -182.5v-19q0 -113 -52 -193.5t-142 -125.5q86 -47 142 -133.5t56 -198.5v-39 q0 -213 -136 -325.5t-361 -112.5h-21q-167 0 -283.5 63t-173.5 180q-40 81 -40 195zM297 1114q0 -118 69 -182t191 -64h127q122 0 191 64t69 182v19q0 129 -83 190t-230 61h-21q-147 0 -230 -61t-83 -190v-19zM299 424q0 -138 81.5 -210.5t229.5 -72.5h21q148 0 229.5 72.5 t81.5 210.5v39q0 118 -69 188t-189 70h-127q-118 0 -188 -71t-70 -187v-39z" />
<glyph unicode="9" d="M102 1006v12q0 249 127 383.5t373 134.5q251 0 374.5 -151t123.5 -431v-358q0 -304 -126 -457t-409 -153q-202 0 -352 34q-49 10 -49 39v80q0 37 37 37q3 0 6 -1t6 -1q159 -33 350 -33q158 0 241.5 66.5t100.5 204.5q10 80 10 184v22q-179 -40 -309 -40 q-238 0 -371 103.5t-133 324.5zM287 1006q0 -143 83 -213t234 -70q150 0 309 37l2 194q0 103 -13.5 177t-47.5 133.5t-96 89.5t-154 30q-166 0 -241.5 -92.5t-75.5 -273.5v-12z" />
<glyph unicode=":" horiz-adv-x="448" d="M135 39v192q0 16 12 27.5t29 11.5h96q17 0 29 -11.5t12 -27.5v-192q0 -16 -12 -27.5t-29 -11.5h-96q-17 0 -29 11.5t-12 27.5zM135 895v190q0 17 12.5 29t28.5 12h96q16 0 28.5 -12t12.5 -29v-190q0 -16 -12 -27.5t-29 -11.5h-96q-17 0 -29 11.5t-12 27.5z" />
<glyph unicode=";" horiz-adv-x="448" d="M18 -178q0 8 2 14l117 387q12 39 41 39h117q27 0 27 -22q0 -4 -5 -17l-153 -387q-1 -2 -3.5 -9t-3.5 -9l-3.5 -7t-5 -7t-6 -4.5t-8 -3.5t-9.5 -1h-82q-25 0 -25 27zM135 895v190q0 17 11.5 29t27.5 12h100q16 0 27.5 -12t11.5 -29v-190q0 -39 -39 -39h-100 q-16 0 -27.5 11t-11.5 28z" />
<glyph unicode="&#x3c;" d="M250 801q0 39 37 69l493 418q30 27 64 27h119q24 0 24 -21q0 -17 -20 -34l-537 -459l537 -459q20 -17 20 -35q0 -20 -24 -20h-119q-35 0 -64 26l-493 418q-37 30 -37 70z" />
<glyph unicode="=" d="M184 535v81q0 16 12 24.5t29 8.5h789q18 0 29.5 -8.5t11.5 -24.5v-81q0 -16 -11.5 -24.5t-29.5 -8.5h-789q-17 0 -29 8.5t-12 24.5zM184 987v82q0 16 12 24.5t29 8.5h789q18 0 29.5 -8.5t11.5 -24.5v-82q0 -16 -11.5 -24.5t-29.5 -8.5h-789q-17 0 -29 8.5t-12 24.5z" />
<glyph unicode="&#x3e;" d="M252 307q0 18 20 35l537 459l-537 459q-20 17 -20 34q0 21 24 21h119q34 0 64 -27l493 -418q37 -30 37 -69q0 -40 -37 -70l-493 -418q-32 -26 -64 -26h-119q-24 0 -24 20z" />
<glyph unicode="?" horiz-adv-x="913" d="M68 1391v71q0 24 6.5 33.5t27.5 13.5q137 27 279 27q74 0 134 -9.5t112 -31.5t87.5 -57t56 -88.5t20.5 -122.5v-25q0 -50 -14 -94.5t-30.5 -71.5t-48.5 -69q-38 -50 -94 -115l-92 -104q-6 -7 -30.5 -33.5t-32 -37.5t-22 -35t-19.5 -49t-5 -56v-101q0 -16 -12 -27.5 t-29 -11.5h-90q-16 0 -27.5 11.5t-11.5 27.5v101q0 56 9.5 100.5t31.5 83t40.5 62t54.5 63.5l94 104q3 4 23 25.5t24.5 27t20 25t20.5 29t15 29t13.5 35t7 37t3.5 44.5v25q0 85 -52 116t-157 31q-126 0 -277 -18h-6q-30 0 -30 35zM227 39v190q0 17 12.5 29t28.5 12h99 q16 0 27.5 -12t11.5 -29v-190q0 -39 -39 -39h-99q-17 0 -29 11.5t-12 27.5z" />
<glyph unicode="@" horiz-adv-x="1570" d="M84 330v31q0 10 2 32l31 320q20 220 137.5 369t307.5 215q131 46 296 46q224 0 376.5 -100t216.5 -272q40 -105 40 -221q0 -268 -103.5 -415.5t-323.5 -194.5q-133 -29 -319 -29q-150 0 -239.5 73t-89.5 211v19q0 4 2 18l22 240q16 156 111 240.5t262 84.5q121 0 262 -30 q22 -4 32.5 -13t10.5 -30v-9l-61 -641q88 13 147.5 50t92.5 100t46 140.5t13 185.5q0 164 -75.5 274t-207.5 163q-96 38 -221 38q-265 0 -420.5 -137.5t-181.5 -382.5l-31 -312q-4 -28 -4 -65q0 -214 140.5 -325.5t375.5 -111.5q117 0 295 15h2q19 0 19 -15v-65 q0 -11 -4.5 -17t-10.5 -8t-18 -4q-154 -16 -285 -16q-219 0 -375 85t-225 239q-45 102 -45 225zM586 399q0 -76 41 -108.5t127 -32.5h87q24 0 44 4l51 576q-101 12 -139 12q-92 0 -134.5 -44.5t-52.5 -137.5l-22 -234q-2 -14 -2 -18v-17z" />
<glyph unicode="A" horiz-adv-x="1296" d="M59 33q0 8 2 14l379 1333q19 73 72 114.5t137 41.5q83 0 135.5 -40.5t71.5 -113.5l379 -1335q2 -6 2 -14q0 -33 -35 -33h-121q-24 0 -34 31l-134 471h-530l-131 -471q-4 -12 -14.5 -21.5t-22.5 -9.5h-121q-35 0 -35 33zM422 664h452l-186 673q-10 37 -39 37 q-31 0 -41 -37z" />
<glyph unicode="B" horiz-adv-x="1261" d="M160 80v1364q0 70 65 76q128 16 326 16q102 0 185.5 -10.5t162.5 -37.5t133 -70.5t86.5 -114t32.5 -162.5v-33q0 -120 -59.5 -201.5t-159.5 -120.5q102 -35 164.5 -121.5t62.5 -209.5v-35q0 -99 -30.5 -174.5t-83 -124t-129.5 -79.5t-163.5 -43.5t-191.5 -12.5 q-228 0 -334 18q-36 4 -51.5 21t-15.5 55zM348 152q204 -9 213 -9q95 0 164 11t128 40t89.5 85.5t30.5 140.5v35q0 260 -309 260h-316v-563zM348 864h316q301 0 301 244v33q0 52 -15 91.5t-45 65t-65.5 42t-86 24.5t-96 11t-106.5 3q-83 0 -203 -6v-508z" />
<glyph unicode="C" horiz-adv-x="1116" d="M123 618v285q0 342 176 504q140 129 365 129q126 0 344 -33q32 -4 32 -26v-105q0 -13 -5 -17.5t-19 -4.5h-6q-241 18 -344 18q-357 0 -357 -465v-285q0 -216 85.5 -340t271.5 -124q117 0 271 11l67 5h8q32 0 32 -33v-84q0 -13 -6 -22t-21 -14.5t-24 -7.5t-30 -4.5 t-25 -3.5q-97 -15 -274 -15q-361 0 -492 324q-49 120 -49 308z" />
<glyph unicode="D" horiz-adv-x="1312" d="M160 57v1407q0 43 47 53q13 3 57 6q154 13 311 13q306 0 463.5 -163t157.5 -474v-276q0 -310 -158 -473.5t-463 -163.5q-263 0 -372 20q-43 6 -43 51zM348 150q55 -5 103 -5h124q223 0 329 120.5t106 357.5v276q0 238 -105.5 357.5t-329.5 119.5q-149 0 -227 -6v-1220z " />
<glyph unicode="E" horiz-adv-x="1128" d="M160 367v788q0 204 108 292.5t328 88.5q305 0 399 -12q21 -5 21 -29v-102q0 -25 -23 -25h-395q-53 0 -89.5 -4t-70.5 -15.5t-54.5 -35t-28.5 -59.5q-9 -40 -9 -99v-285h629q17 0 29 -12t12 -29v-77q0 -16 -12 -28.5t-29 -12.5h-629v-344q0 -92 26 -139t95 -63 q45 -11 131 -11h395q23 0 23 -25v-104q0 -8 -3 -14.5t-8.5 -10t-12.5 -5.5t-16 -2.5t-18.5 -1t-19.5 -0.5h-20q-26 0 -102.5 -2.5t-117.5 -2.5h-102q-220 0 -328 88.5t-108 292.5z" />
<glyph unicode="F" horiz-adv-x="1128" d="M160 41v1114q0 204 108 292.5t328 88.5q305 0 399 -12q21 -5 21 -29v-102q0 -25 -23 -25h-395q-53 0 -89.5 -4t-70.5 -15.5t-54.5 -35t-28.5 -59.5q-9 -40 -9 -99v-285h629q17 0 29 -12t12 -29v-77q0 -16 -12 -28.5t-29 -12.5h-629v-670q0 -17 -12 -29t-29 -12h-104 q-17 0 -29 12t-12 29z" />
<glyph unicode="G" horiz-adv-x="1253" d="M119 623v274q0 339 176 506q141 133 373 133q221 0 389 -29q11 -2 18 -4.5t12 -9t5 -16.5v-103q0 -20 -27 -20h-8q-159 14 -389 14q-363 0 -363 -471v-274q0 -102 18.5 -185t58 -148.5t107.5 -101.5t160 -36q144 0 258 12v586q0 17 10.5 29t26.5 12h111q16 0 27.5 -12 t11.5 -29v-689q0 -39 -37 -45q-186 -30 -408 -30q-183 0 -303 91.5t-180 247.5q-47 123 -47 298z" />
<glyph unicode="H" horiz-adv-x="1392" d="M160 41v1440q0 17 12 29t29 12h104q17 0 29 -12t12 -29v-594h701v594q0 17 12 29t28 12h105q16 0 28.5 -12t12.5 -29v-1440q0 -17 -12.5 -29t-28.5 -12h-105q-16 0 -28 12t-12 29v680h-701v-680q0 -17 -12 -29t-29 -12h-104q-17 0 -29 12t-12 29z" />
<glyph unicode="I" horiz-adv-x="546" d="M180 41v1442q0 17 10.5 28t26.5 11h113q16 0 26.5 -11t10.5 -28v-1442q0 -17 -10.5 -29t-26.5 -12h-113q-16 0 -26.5 12t-10.5 29z" />
<glyph unicode="J" horiz-adv-x="526" d="M-72 -254q0 16 12 25.5t29 9.5h80q78 0 104.5 31t26.5 112v1559q0 17 11 28t28 11h109q16 0 27.5 -11t11.5 -28v-1559q0 -154 -77.5 -223.5t-240.5 -69.5q-121 0 -121 39v76z" />
<glyph unicode="K" horiz-adv-x="1243" d="M160 41v1442q0 17 11 28t28 11h108q17 0 28 -11t11 -28v-662l590 682l11.5 11.5t10 5t19.5 2.5h147q29 0 29 -23q0 -12 -8 -20l-617 -697l617 -737q10 -10 10 -25q0 -20 -27 -20h-159q-28 0 -45 20l-578 703v-682q0 -17 -10.5 -29t-26.5 -12h-112q-16 0 -26.5 12 t-10.5 29z" />
<glyph unicode="L" horiz-adv-x="1052" d="M160 367v1114q0 17 12 29t29 12h104q17 0 29 -12t12 -29v-1114q0 -92 26 -139t95 -63q45 -11 131 -11h395q23 0 23 -25v-96q0 -24 -21 -29q-124 -18 -399 -18q-220 0 -328 86.5t-108 294.5z" />
<glyph unicode="M" horiz-adv-x="1558" d="M160 41v1421q0 25 17.5 42.5t41.5 17.5h133q29 0 42 -7t24 -28l338 -703q10 -22 24 -22q15 0 25 22l338 703q11 21 23.5 28t41.5 7h133q25 0 42.5 -18t17.5 -42v-1421q0 -17 -12.5 -29t-28.5 -12h-100q-16 0 -28.5 12t-12.5 29v1214q0 7 -2 7q-3 0 -5 -5l-292 -606 q-17 -32 -35.5 -45.5t-57.5 -13.5h-94q-39 0 -57 13.5t-35 45.5l-293 606q-2 5 -4 5t-2 -7v-1214q0 -17 -12 -29t-29 -12h-100q-17 0 -29 12t-12 29z" />
<glyph unicode="N" horiz-adv-x="1392" d="M160 25v1439q0 24 17.5 41t41.5 17h113q40 0 55 -7.5t29 -33.5l628 -1196l5 -6q2 0 2 6v1198q0 17 10 28t26 11h109q16 0 26.5 -11t10.5 -28v-1424q0 -25 -17.5 -42t-41.5 -17h-127q-49 0 -66 33l-633 1202q-2 6 -6 6q-2 0 -2 -6v-1196q0 -17 -10.5 -28t-26.5 -11h-106 q-19 0 -28 5t-9 20z" />
<glyph unicode="O" horiz-adv-x="1353" d="M123 629v264q0 303 138.5 473t416.5 170q141 0 247.5 -45t173 -130t99.5 -202t33 -266v-264q0 -149 -33 -266t-99.5 -202t-173 -130t-247.5 -45q-278 0 -416.5 170t-138.5 473zM311 629q0 -475 367 -475q100 0 172 34t113 99t60 149t19 193v264q0 110 -19 193.5 t-60 148.5t-113 99t-172 34q-367 0 -367 -475v-264z" />
<glyph unicode="P" horiz-adv-x="1214" d="M160 41v1427q0 46 49 52q123 16 340 16q573 0 573 -444v-27q0 -459 -573 -459q-97 0 -205 10v-575q0 -17 -10.5 -29t-26.5 -12h-110q-16 0 -26.5 12t-10.5 29zM344 770q32 0 101.5 -4t103.5 -4q200 0 293.5 66.5t93.5 236.5v27q0 161 -96.5 223.5t-290.5 62.5 q-127 0 -205 -8v-600z" />
<glyph unicode="Q" horiz-adv-x="1353" d="M123 629v264q0 303 138.5 473t416.5 170q141 0 247.5 -45t173 -130t99.5 -202t33 -266v-264q0 -279 -115.5 -445t-349.5 -194v-88q0 -73 25.5 -96t101.5 -23h121q19 0 32 -8.5t13 -24.5v-69q0 -50 -166 -50q-160 0 -233.5 59.5t-73.5 209.5v92q-232 28 -347.5 194 t-115.5 443zM311 629q0 -475 367 -475q100 0 172 34t113 99t60 149t19 193v264q0 110 -19 193.5t-60 148.5t-113 99t-172 34q-367 0 -367 -475v-264z" />
<glyph unicode="R" horiz-adv-x="1280" d="M160 41v1434q0 13 6 23t14 14.5t23 8t25.5 4t29.5 1t28 1.5q134 9 283 9q574 0 574 -440v-15q0 -169 -86.5 -271.5t-235.5 -141.5l373 -623q6 -7 6 -18q0 -27 -26 -27h-132q-24 0 -33.5 4.5t-19.5 22.5l-366 610h-54q-107 0 -225 6v-602q0 -17 -10.5 -29t-26.5 -12h-110 q-16 0 -26.5 12t-10.5 29zM344 801q142 -4 225 -4q74 0 130 7t106.5 26.5t83 51t51 81.5t18.5 118v15q0 65 -18.5 113.5t-51 78.5t-82.5 48t-106.5 25t-130.5 7h-55q-120 0 -170 -6v-561z" />
<glyph unicode="S" horiz-adv-x="1126" d="M102 1174q0 362 490 362q179 0 356 -25q35 -6 35 -34v-88q0 -33 -35 -33h-4q-192 12 -352 12q-61 0 -103 -4t-82 -16t-64 -33t-38 -56t-14 -85q0 -34 10 -62t30 -50.5t37.5 -37t45.5 -34.5q41 -28 100 -64l188 -113q171 -101 250 -201q72 -91 72 -217q0 -209 -134.5 -309 t-371.5 -100q-154 0 -340 28q-23 4 -31 10.5t-8 26.5v82q0 15 10 24t25 9h6q208 -12 338 -12q154 0 232.5 54t78.5 187q0 37 -10 67t-31 54.5t-39 39.5t-49 37q-35 26 -116 77l-199 121q-141 86 -212 173q-71 88 -71 210z" />
<glyph unicode="T" horiz-adv-x="1208" d="M72 1395v90q0 16 12 26.5t29 10.5h985q39 0 39 -37v-90q0 -33 -39 -33h-400v-1321q0 -17 -10 -29t-26 -12h-113q-16 0 -26.5 12t-10.5 29v1321h-399q-17 0 -29 8.5t-12 24.5z" />
<glyph unicode="U" horiz-adv-x="1355" d="M154 553v930q0 17 11 28t28 11h110q17 0 28 -11t11 -28v-930q0 -204 76 -306t260 -102t260 102t76 306v930q0 17 11 28t28 11h110q17 0 28 -11t11 -28v-930q0 -279 -130.5 -423t-393.5 -144q-262 0 -393 144.5t-131 422.5z" />
<glyph unicode="V" horiz-adv-x="1316" d="M70 1487q0 35 36 35h119q12 0 22.5 -9.5t14.5 -21.5l356 -1305q12 -43 41 -43q27 0 39 43l359 1305q11 31 35 31h120q35 0 35 -35q0 -6 -2 -12l-377 -1334q-45 -155 -209 -155q-163 0 -208 155l-379 1334q-2 6 -2 12z" />
<glyph unicode="W" horiz-adv-x="1689" d="M72 1481v6q0 35 34 35h119q29 0 35 -35l199 -1305q4 -15 4 -23q0 -7 6 -7q8 0 14 30l201 758q21 82 96 82h131q76 0 97 -82l200 -758q6 -30 15 -30q6 0 6 7q0 8 4 23l199 1305q6 35 34 35h119q35 0 35 -35v-6l-227 -1385q-9 -56 -38.5 -80t-88.5 -24h-88q-45 0 -75.5 29 t-41.5 73l-201 758q-1 3 -2 7t-1.5 5l-1.5 3t-2.5 2.5t-4.5 0.5h-4q-8 0 -12 -13q0 -3 -1 -5l-202 -758q-11 -44 -41.5 -73t-75.5 -29h-86q-59 0 -88.5 24t-38.5 80z" />
<glyph unicode="X" horiz-adv-x="1323" d="M94 31q0 13 6 20l455 723l-451 699q-6 11 -6 20q0 29 31 29h133q25 0 37 -21l369 -583l356 583q9 13 16 17t23 4h121q15 0 24 -8.5t9 -22.5q0 -6 -7 -18l-440 -703l461 -719q6 -8 6 -22q0 -13 -9.5 -21t-23.5 -8h-129q-12 0 -20.5 5t-11.5 9t-11 17l-375 596l-366 -596 q-22 -31 -43 -31h-121q-15 0 -24 8.5t-9 22.5z" />
<glyph unicode="Y" horiz-adv-x="1193" d="M72 1493q0 29 34 29h125q10 0 21.5 -9.5t15.5 -19.5l283 -664q1 -3 5.5 -12t6 -11.5t5 -9t6 -9t6.5 -6t8.5 -4.5t9.5 -1t9.5 1t8.5 4.5t6.5 6t6 9t5 9t6 11.5t5.5 12l285 664q12 29 35 29h125q34 0 34 -29q0 -11 -6 -23l-317 -712q-26 -56 -50 -87.5t-61 -47.5v-582 q0 -17 -10.5 -29t-26.5 -12h-112q-16 0 -26.5 12t-10.5 29v582q-36 13 -60 45t-51 90l-315 712q-6 12 -6 23z" />
<glyph unicode="Z" horiz-adv-x="1222" d="M115 139q0 77 30 119l734 1067q6 11 6 16q0 15 -21 15h-680q-17 0 -29 9.5t-12 25.5v96q0 16 12 25.5t29 9.5h729q92 0 133 -27.5t41 -108.5q0 -76 -32 -120l-731 -1067q-7 -9 -7 -19q0 -12 21 -12h735q17 0 29 -9.5t12 -25.5v-96q0 -16 -12 -26.5t-29 -10.5h-788 q-97 0 -133.5 27t-36.5 112z" />
<glyph unicode="[" horiz-adv-x="669" d="M164 -358v1841q0 17 9.5 28t25.5 11h381q16 0 28.5 -12t12.5 -29v-68q0 -17 -12.5 -29t-28.5 -12h-234v-1620h234q16 0 28.5 -12t12.5 -29v-67q0 -16 -12.5 -28.5t-28.5 -12.5h-381q-16 0 -25.5 11t-9.5 28z" />
<glyph unicode="\" horiz-adv-x="727" d="M47 1493q0 12 8 20.5t21 8.5h104q24 0 35 -41l465 -1440q2 -6 2 -12q0 -12 -8 -20.5t-21 -8.5h-104q-26 0 -37 41l-463 1440q-2 6 -2 12z" />
<glyph unicode="]" horiz-adv-x="669" d="M49 -289q0 17 12.5 29t28.5 12h234v1620h-234q-16 0 -28.5 12t-12.5 29v68q0 17 12.5 29t28.5 12h381q16 0 25.5 -11t9.5 -28v-1841q0 -17 -9.5 -28t-25.5 -11h-381q-16 0 -28.5 12.5t-12.5 28.5v67z" />
<glyph unicode="^" d="M207 1171q0 12 8 23l236 305q19 27 30 32t31 5h217q18 0 29.5 -5t16 -10.5t16.5 -21.5l235 -305q8 -11 8 -23q0 -18 -22 -18h-123q-12 0 -21.5 3.5t-12.5 6t-12 13.5t-12 14l-210 246l-211 -246q-4 -4 -10 -11.5t-9 -11t-9 -7.5t-13 -5.5t-17 -1.5h-123q-22 0 -22 18z " />
<glyph unicode="_" horiz-adv-x="1011" d="M-61 -133q0 16 11.5 24.5t29.5 8.5h1054q18 0 29.5 -8.5t11.5 -24.5v-51q0 -16 -11.5 -24.5t-29.5 -8.5h-1054q-18 0 -29.5 8.5t-11.5 24.5v51z" />
<glyph unicode="`" horiz-adv-x="761" d="M82 1581q0 14 22 14h136q7 0 13 -1.5t9.5 -2t8 -5t6 -5.5t7.5 -7.5t7 -8.5l198 -254q9 -9 9 -21q0 -14 -19 -14h-110q-8 0 -13.5 1t-10.5 5l-7.5 6t-8 9.5t-7.5 9.5l-232 258q-8 8 -8 16z" />
<glyph unicode="a" horiz-adv-x="1062" d="M98 317v25q0 80 25 139.5t67 96t107 58.5t134.5 30t160.5 8h151v82q0 128 -48 179.5t-171 51.5q-155 0 -313 -16h-10q-37 0 -37 33v71q0 33 43 39q169 27 317 27q202 0 301 -95.5t99 -289.5v-715q0 -17 -12 -29t-29 -12h-95q-16 0 -28 12t-12 29v45q-171 -100 -316 -100 q-163 0 -248.5 83.5t-85.5 247.5zM279 319q0 -102 44 -144t144 -42q80 0 141 20.5t135 61.5v330h-151q-62 0 -104 -3.5t-85 -15.5t-68 -33.5t-40.5 -58.5t-15.5 -90v-25z" />
<glyph unicode="b" horiz-adv-x="1107" d="M139 68v1433q0 17 10.5 28t26.5 11h105q16 0 27 -11t11 -28v-381q119 21 240 21q225 0 336 -131t111 -371v-147q0 -239 -111 -372.5t-336 -133.5q-201 0 -377 34q-26 4 -34.5 13t-8.5 35zM319 156q172 -13 240 -13q149 0 207.5 88t58.5 261v147q0 82 -12.5 142.5 t-42 107.5t-82.5 70.5t-129 23.5h-55q-101 0 -185 -14v-813z" />
<glyph unicode="c" horiz-adv-x="925" d="M102 483v160q0 229 111.5 363.5t325.5 134.5q138 0 256 -23q24 -4 32.5 -12.5t8.5 -32.5v-74q0 -30 -35 -30h-8q-118 14 -254 14q-256 0 -256 -340v-160q0 -340 256 -340q127 0 254 15h8q35 0 35 -31v-74q0 -22 -9 -31.5t-32 -13.5q-113 -22 -256 -22q-213 0 -325 135 t-112 362z" />
<glyph unicode="d" horiz-adv-x="1107" d="M102 492v147q0 241 110.5 371.5t336.5 130.5q113 0 239 -21v381q0 17 11 28t28 11h105q16 0 26.5 -11t10.5 -28v-1433q0 -25 -9 -34.5t-34 -13.5q-177 -34 -377 -34q-225 0 -336 133.5t-111 372.5zM283 492q0 -173 58.5 -261t207.5 -88q67 0 239 13v813q-69 14 -239 14 q-147 0 -206.5 -87.5t-59.5 -256.5v-147z" />
<glyph unicode="e" horiz-adv-x="1114" d="M102 477v185q0 224 118.5 351.5t336.5 127.5q220 0 335.5 -126.5t115.5 -352.5v-111q0 -45 -39 -45h-686v-29q0 -171 66 -252.5t218 -81.5q209 0 365 23h10q33 0 33 -29v-69q0 -23 -9.5 -33.5t-31.5 -14.5q-184 -34 -367 -34q-228 0 -346.5 126.5t-118.5 364.5zM283 643 h542v19q0 164 -61.5 242.5t-206.5 78.5q-274 0 -274 -321v-19z" />
<glyph unicode="f" horiz-adv-x="780" d="M51 1034v56q0 16 11 26t28 10h199v148q0 149 68.5 217t217.5 68q154 0 154 -46v-67q0 -31 -37 -31h-98q-75 0 -100 -30t-25 -111v-148h215q17 0 28 -10t11 -26v-80q0 -35 -39 -35h-215v-934q0 -17 -11.5 -29t-27.5 -12h-100q-16 0 -28.5 12t-12.5 29v934l-199 22 q-39 5 -39 37z" />
<glyph unicode="g" horiz-adv-x="1144" d="M111 -66q0 82 37.5 151t91.5 110q-109 46 -109 165v2q0 48 23.5 87.5t60.5 60.5q-94 89 -94 238v16q0 95 33 165t94 113t142.5 63.5t184.5 20.5h449q18 0 32.5 -13.5t14.5 -31.5v-53q0 -19 -9 -27t-28 -12l-73 -14q69 -69 69 -211v-16q0 -185 -117.5 -268t-337.5 -83 q-137 0 -237 41q-51 -24 -51 -69q0 -30 15 -43.5t48 -22.5l305 -78q53 -13 87 -22.5t80.5 -25.5t78.5 -33.5t63.5 -43t51.5 -55.5q33 -49 33 -121v-16q0 -147 -108 -233q-107 -85 -359 -85q-471 0 -471 326v18zM287 -66v-18q0 -56 22.5 -94t65.5 -57.5t92 -27t115 -7.5 q53 0 92 3.5t77.5 14.5t62.5 30t39 52t15 78v16q0 28 -10.5 49.5t-32.5 36t-41 22.5t-49 18q-56 18 -117 34l-231 59q-51 -44 -75.5 -89t-24.5 -120zM299 748q0 -109 73.5 -159t202.5 -50q136 0 206.5 46.5t70.5 162.5v16q0 118 -71 168.5t-206 50.5t-205.5 -50.5 t-70.5 -168.5v-16z" />
<glyph unicode="h" horiz-adv-x="1140" d="M139 41v1458q0 17 11.5 29t27.5 12h103q16 0 27 -12t11 -29v-422q63 28 149.5 46t164.5 18q186 0 277 -111.5t91 -314.5v-674q0 -17 -12 -29t-28 -12h-99q-16 0 -28.5 12t-12.5 29v674q0 137 -51 202.5t-168 65.5q-162 0 -283 -57v-885q0 -17 -12 -29t-28 -12h-101 q-16 0 -27.5 12t-11.5 29z" />
<glyph unicode="i" horiz-adv-x="505" d="M160 1348v163q0 17 12 29t29 12h104q17 0 29 -12t12 -29v-163q0 -16 -12 -28.5t-29 -12.5h-104q-17 0 -29 12.5t-12 28.5zM162 41v1044q0 17 12 29t29 12h98q17 0 29 -12t12 -29v-1044q0 -17 -12 -29t-29 -12h-98q-17 0 -29 12t-12 29z" />
<glyph unicode="j" horiz-adv-x="505" d="M-61 -287q0 29 43 29h84q62 0 79 25.5t17 101.5v1216q0 17 10.5 29t26.5 12h106q16 0 26.5 -12t10.5 -29v-1216q0 -142 -59.5 -207t-196.5 -65h-8h-6q-133 0 -133 41v75zM160 1346v165q0 17 12 29t29 12h104q17 0 29 -12t12 -29v-165q0 -16 -12 -27.5t-29 -11.5h-104 q-17 0 -29 11.5t-12 27.5z" />
<glyph unicode="k" horiz-adv-x="1015" d="M139 41v1458q0 17 12.5 29t28.5 12h99q16 0 28 -12t12 -29v-852l410 461q11 11 17.5 14.5t23.5 3.5h143q31 0 31 -22q0 -13 -10 -23l-451 -487l455 -549q6 -6 6 -18q0 -27 -22 -27h-148q-13 0 -21.5 3.5t-12.5 7.5t-13 16l-408 503v-489q0 -17 -12 -29t-28 -12h-99 q-16 0 -28.5 12t-12.5 29z" />
<glyph unicode="l" horiz-adv-x="499" d="M160 41v1460q0 17 10.5 28t26.5 11h106q16 0 26.5 -11t10.5 -28v-1460q0 -17 -10.5 -29t-26.5 -12h-106q-16 0 -26.5 12t-10.5 29z" />
<glyph unicode="m" horiz-adv-x="1634" d="M139 41v1044q0 17 11.5 29t27.5 12h103q16 0 27 -12t11 -29v-38q152 96 299 96q132 0 205 -84q177 84 340 84q332 0 332 -377v-725q0 -17 -12.5 -29t-28.5 -12h-98q-16 0 -28.5 12t-12.5 29v725q0 108 -44 163.5t-143 55.5q-97 0 -239 -55q18 -68 18 -160v-729 q0 -17 -10.5 -29t-26.5 -12h-108q-16 0 -25.5 12t-9.5 29v729q0 113 -32 164t-126 51q-42 0 -92.5 -14.5t-79 -27.5t-78.5 -38v-864q0 -17 -10 -29t-26 -12h-109q-16 0 -25.5 12t-9.5 29z" />
<glyph unicode="n" horiz-adv-x="1140" d="M139 41v1044q0 17 11.5 29t27.5 12h103q16 0 27 -12t11 -29v-38q90 49 159 71.5t167 22.5q356 0 356 -426v-674q0 -17 -12 -29t-28 -12h-99q-16 0 -28.5 12t-12.5 29v674q0 140 -49.5 205t-175.5 65q-113 0 -277 -80v-864q0 -17 -12 -29t-28 -12h-101q-16 0 -27.5 12 t-11.5 29z" />
<glyph unicode="o" horiz-adv-x="1116" d="M102 485v156q0 234 116 367t339 133q224 0 340.5 -133t116.5 -367v-156q0 -234 -116.5 -366.5t-340.5 -132.5q-223 0 -339 132.5t-116 366.5zM283 485q0 -342 274 -342q143 0 210 90.5t67 251.5v156q0 161 -66.5 251.5t-210.5 90.5q-274 0 -274 -342v-156z" />
<glyph unicode="p" horiz-adv-x="1107" d="M139 -362v1409q0 25 8.5 33t34.5 14q186 47 377 47q225 0 336 -133t111 -373v-148q0 -241 -110.5 -371t-336.5 -130q-108 0 -240 22v-370q0 -17 -11 -28t-27 -11h-105q-16 0 -26.5 11t-10.5 28zM319 158q103 -21 240 -21q76 0 129 24.5t82.5 72.5t42 109t12.5 144v148 q0 82 -13 143.5t-42.5 110.5t-82.5 74.5t-128 25.5q-137 0 -240 -20v-811z" />
<glyph unicode="q" horiz-adv-x="1107" d="M102 487v148q0 240 111 373t336 133q185 0 377 -47q26 -6 34.5 -14t8.5 -33v-1409q0 -17 -10.5 -28t-26.5 -11h-105q-17 0 -28 11.5t-11 27.5v370q-125 -22 -239 -22q-225 0 -336 130.5t-111 370.5zM283 487q0 -83 12.5 -144t42 -109t82.5 -72.5t129 -24.5q113 0 239 21 v811q-100 20 -239 20q-147 0 -206.5 -91.5t-59.5 -262.5v-148z" />
<glyph unicode="r" horiz-adv-x="700" d="M139 41v1044q0 17 11.5 29t27.5 12h96q16 0 27.5 -12t11.5 -29v-43q72 49 138 74t151 25q43 0 43 -37v-84q0 -35 -43 -35q-85 0 -147.5 -21t-135.5 -65v-858q0 -17 -12 -29t-28 -12h-101q-16 0 -27.5 12t-11.5 29z" />
<glyph unicode="s" horiz-adv-x="954" d="M102 57v72q0 15 10.5 23t26.5 8h8q207 -23 322 -23q102 0 152.5 31t50.5 115q0 47 -33 82q-36 37 -121 88l-207 122q-94 56 -151 126q-58 70 -58 167q0 77 27.5 131.5t79 85t116 43.5t148.5 13q158 0 320 -27q38 -6 38 -41v-67q0 -35 -34 -35h-6q-219 16 -318 16 q-47 0 -76.5 -3.5t-58 -15t-42 -36.5t-13.5 -64q0 -47 34 -81q32 -32 107 -74l203 -121q126 -76 176 -148q49 -71 49 -161q0 -153 -103.5 -225t-279.5 -72q-190 0 -324 30q-43 10 -43 41z" />
<glyph unicode="t" horiz-adv-x="788" d="M51 1034v56q0 36 39 36h199v201q0 35 37 41l106 16h6q14 0 22.5 -9.5t8.5 -24.5v-224h221q16 0 28.5 -12t12.5 -29v-69q0 -16 -12.5 -28.5t-28.5 -12.5h-221v-715q0 -78 21 -103.5t90 -25.5h114q43 0 43 -29v-71q0 -45 -152 -45h-7h-11q-151 0 -214.5 61.5t-63.5 212.5 v715l-199 22q-39 5 -39 37z" />
<glyph unicode="u" horiz-adv-x="1140" d="M139 412v673q0 17 12.5 29t28.5 12h99q16 0 28 -12t12 -29v-673q0 -140 50 -205.5t176 -65.5q70 0 134.5 21t141.5 59v864q0 17 12.5 29t28.5 12h101q16 0 27 -12t11 -29v-1044q0 -17 -11 -29t-27 -12h-103q-16 0 -27.5 12t-11.5 29v39q-90 -49 -158.5 -71.5 t-166.5 -22.5q-357 0 -357 426z" />
<glyph unicode="v" horiz-adv-x="1085" d="M80 1092q0 34 33 34h112q27 0 39 -39l236 -892q1 -2 2.5 -9.5t2.5 -10t2.5 -8.5t2.5 -8t3.5 -6.5t4 -6l4.5 -4.5t6 -4t7 -2t8 -1q13 0 21.5 8.5t11.5 16.5t8 28q1 5 2 7l235 892q12 39 39 39h113q33 0 33 -34q0 -7 -2 -15l-277 -975q-18 -62 -62.5 -89t-121.5 -27 t-122 27t-63 89l-276 975q-2 8 -2 15z" />
<glyph unicode="w" horiz-adv-x="1609" d="M78 1077v8q0 17 11.5 29t27.5 12h110q13 0 23 -9.5t12 -22.5l170 -934q6 -25 17 -25q10 0 16 25l201 786q9 33 27.5 47.5t54.5 14.5h114q36 0 54.5 -14.5t27.5 -47.5l201 -786q6 -25 16 -25q11 0 17 25l170 934q2 13 11.5 22.5t22.5 9.5h111q16 0 27.5 -12t11.5 -29v-8 l-199 -950q-6 -31 -9 -42.5t-10.5 -33.5t-16 -31t-24 -18t-36.5 -12q-25 -4 -76 -4q-44 0 -73 8.5t-47 29t-27.5 44t-20.5 65.5l-178 696q-1 3 -3 7l-1.5 4.5t-2 2.5t-3.5 1q-3 0 -4.5 -1.5t-3 -6.5t-2.5 -7l-179 -696q-11 -42 -20.5 -64.5t-27 -44t-46.5 -30t-73 -8.5 q-70 0 -103.5 11.5t-48.5 53.5q-10 27 -21 76z" />
<glyph unicode="x" horiz-adv-x="1120" d="M82 20q0 16 10 27l369 526l-348 502q-11 17 -11 27q0 24 31 24h133q25 0 41 -28l260 -385l262 385q1 2 4.5 6.5t4.5 5.5t3 4.5t3.5 4t4 2.5t4.5 2.5t5 1.5t6.5 1h7.5h119q27 0 27 -24q0 -11 -10 -27l-344 -489l374 -539q9 -13 9 -24q0 -23 -27 -23h-141q-19 0 -29 16 l-293 428l-293 -424q-12 -17 -18 -18q-5 -2 -17 -2h-123q-24 0 -24 20z" />
<glyph unicode="y" horiz-adv-x="1093" d="M80 1092q0 34 37 34h112q24 0 35 -32l242 -889q7 -24 14.5 -34.5t24.5 -10.5h33l249 936q10 30 39 30h115q33 0 33 -34q0 -9 -2 -15l-338 -1179q-18 -61 -34 -101t-42 -80.5t-63 -66t-88 -39.5q-62 -17 -148 -17q-215 0 -215 52v75q0 33 39 33h6q96 -12 182 -12 q96 0 139 41.5t64 132.5l21 84h-29q-68 0 -99.5 35t-52.5 106l-272 936q-2 6 -2 15z" />
<glyph unicode="z" horiz-adv-x="987" d="M100 113v39q0 47 10 72.5t37 60.5l529 657q8 13 8 19q0 14 -20 14h-498q-16 0 -28.5 12.5t-12.5 28.5v69q0 17 12.5 29t28.5 12h602q58 0 86.5 -24t28.5 -76v-49q0 -37 -11.5 -61t-35.5 -52l-539 -674q-10 -10 -10 -22q0 -16 16 -16h541q16 0 28.5 -12t12.5 -29v-70 q0 -17 -12.5 -29t-28.5 -12h-619q-57 0 -91 30.5t-34 82.5z" />
<glyph unicode="{" horiz-adv-x="677" d="M41 502v119q65 43 94 99.5t29 153.5v365q0 121 35 185.5t124 83.5q62 14 154 14h103q16 0 28.5 -12t12.5 -29v-68q0 -17 -12.5 -29t-28.5 -12h-93q-65 0 -96.5 -12.5t-39.5 -53.5q-5 -28 -5 -67v-365q0 -120 -33.5 -191t-111.5 -124q78 -55 111.5 -125t33.5 -188v-361 q0 -60 13.5 -90t55.5 -38q30 -5 72 -5h95q16 0 28.5 -12t12.5 -29v-67q0 -16 -12.5 -28.5t-28.5 -12.5h-105q-133 0 -204.5 30t-94.5 116q-14 50 -14 136v361q0 98 -29.5 155.5t-93.5 100.5z" />
<glyph unicode="|" horiz-adv-x="509" d="M164 -358v1841q0 17 11 28t28 11h106q16 0 26.5 -11t10.5 -28v-1841q0 -17 -10.5 -28t-26.5 -11h-106q-17 0 -28 11.5t-11 27.5z" />
<glyph unicode="}" horiz-adv-x="677" d="M55 -289q0 17 12.5 29t28.5 12h94q64 0 96.5 12.5t40.5 54.5q5 28 5 66v361q0 118 33.5 188t111.5 125q-78 53 -111.5 124t-33.5 191v365q0 60 -13.5 90t-55.5 38q-30 5 -73 5h-92q-16 0 -28.5 12t-12.5 29v68q0 17 12.5 29t28.5 12h103q65 0 110.5 -5.5t86.5 -21 t66.5 -45.5t36.5 -75q13 -52 13 -136v-365q0 -97 29 -153.5t94 -99.5v-119q-64 -43 -93.5 -100.5t-29.5 -155.5v-361q0 -122 -34 -185.5t-125 -83.5q-58 -13 -154 -13h-105q-16 0 -28.5 12.5t-12.5 28.5v67z" />
<glyph unicode="~" d="M188 760v53q0 127 56.5 196.5t171.5 69.5q83 0 153 -57l174 -139q15 -14 40.5 -27.5t45.5 -13.5q53 0 67.5 25t14.5 89v58q0 16 12.5 28.5t28.5 12.5h60q16 0 28.5 -12.5t12.5 -28.5v-58q0 -132 -51.5 -197t-172.5 -65q-80 0 -155 58l-150 118q-11 9 -26 20t-24 18.5 t-15 11.5q-20 14 -43 14q-54 0 -70 -28t-16 -93v-53q0 -16 -12 -28.5t-29 -12.5h-60q-17 0 -29 12.5t-12 28.5z" />
<glyph unicode="&#xa0;" />
<glyph unicode="&#xa1;" horiz-adv-x="444" d="M133 -377l14 1065q0 16 12 27.5t29 11.5h72q17 0 29 -11.5t12 -27.5l16 -1065q0 -16 -12 -27.5t-29 -11.5h-104q-16 0 -27.5 11t-11.5 28zM137 895v192q0 39 39 39h98q16 0 27.5 -11t11.5 -28v-192q0 -17 -11.5 -28t-27.5 -11h-98q-16 0 -27.5 11t-11.5 28z" />
<glyph unicode="&#xa2;" d="M254 483v160q0 198 86.5 326t247.5 161v191q0 17 12 29t29 12h84q17 0 29 -12t12 -29v-182q117 -9 192 -21q24 -4 32.5 -12.5t8.5 -32.5v-74q0 -30 -35 -30h-8q-135 16 -254 16q-256 0 -256 -342v-160q0 -342 256 -342q110 0 254 17h8q35 0 35 -31v-74q0 -22 -9 -31.5 t-32 -13.5q-63 -10 -192 -20v-185q0 -17 -12 -29t-29 -12h-84q-17 0 -29 12t-12 29v193q-161 33 -247.5 161t-86.5 326z" />
<glyph unicode="&#xa3;" d="M143 748v86q0 16 12 26t29 10h103v134q0 265 102 390.5t350 125.5q145 0 318 -27q23 -4 31 -10t8 -25v-84q0 -35 -31 -35h-10q-193 23 -316 23q-119 0 -179 -42.5t-76 -142.5q-11 -63 -11 -173v-134h440q17 0 28 -10t11 -26v-86q0 -16 -12 -26.5t-29 -10.5h-438v-312 q0 -115 -72 -243h654q41 0 41 -31v-90q0 -16 -12 -25.5t-29 -9.5h-817q-15 0 -25 9t-10 22v80q0 10 2.5 17.5t9.5 18t8 11.5q36 62 50 110.5t14 130.5v312h-107q-16 0 -26.5 10.5t-10.5 26.5z" />
<glyph unicode="&#xa4;" d="M106 584v57q0 17 12 29t29 12h66v166h-66q-17 0 -29 12t-12 29v57q0 16 12 28.5t29 12.5h68q20 258 166.5 403.5t404.5 145.5q44 0 91.5 -4t69 -6.5t82 -12t69.5 -10.5q32 -4 32 -26v-105q0 -13 -5 -17.5t-19 -4.5h-6q-261 18 -312 18q-176 0 -272 -101.5t-113 -279.5 h594q35 0 35 -33q0 -2 -1 -4t-1 -4l-14 -57q-11 -41 -41 -41h-576v-166h527q30 0 30 -31q0 -2 -1 -4.5t-1 -5.5l-14 -57q-11 -41 -41 -41h-498q17 -183 112.5 -286t274.5 -103q105 0 306 16h8q33 0 33 -33v-84q0 -13 -6.5 -22t-19.5 -14t-23.5 -7.5t-28.5 -5t-24 -3.5 q-81 -15 -247 -15q-180 0 -305.5 76t-197.5 211q-58 109 -68 270h-68q-17 0 -29 12.5t-12 28.5z" />
<glyph unicode="&#xa5;" d="M74 473v62q0 16 12 28t29 12h411v43l-112 226h-299q-17 0 -29 12t-12 29v61q0 16 12 28.5t29 12.5h227l-244 483q-6 16 -6 25q0 27 33 27h129q10 0 20 -9.5t15 -19.5l332 -694l331 694q12 29 35 29h127q35 0 35 -29q0 -11 -6 -23l-244 -483h225q16 0 28.5 -12.5 t12.5 -28.5v-61q0 -17 -12.5 -29t-28.5 -12h-297l-112 -226v-43h409q17 0 29 -12t12 -28v-62q0 -17 -12.5 -29t-28.5 -12h-409v-391q0 -17 -10.5 -29t-26.5 -12h-117q-16 0 -25.5 12t-9.5 29v391h-411q-17 0 -29 12t-12 29z" />
<glyph unicode="&#xa6;" horiz-adv-x="509" d="M164 319q0 17 10.5 28t26.5 11h108q16 0 26.5 -11t10.5 -28v-710q0 -17 -10.5 -29t-26.5 -12h-108q-16 0 -26.5 12t-10.5 29v710zM164 741v711q0 17 10.5 28t26.5 11h108q16 0 26.5 -11t10.5 -28v-711q0 -17 -10.5 -29t-26.5 -12h-108q-16 0 -26.5 12t-10.5 29z" />
<glyph unicode="&#xa7;" horiz-adv-x="1120" d="M98 754q0 62 18 111t52 104q-70 75 -70 207q0 102 35.5 174t103 111.5t153 57t198.5 17.5q210 0 358 -27q37 -9 37 -39v-88q0 -34 -37 -34h-2q-32 1 -158.5 9.5t-197.5 8.5q-58 0 -98 -3.5t-80 -15t-64 -31.5t-38.5 -55t-14.5 -85q0 -63 26 -100t79 -75q30 -21 102 -65 l223 -131q85 -49 142.5 -95t98.5 -106q58 -83 58 -209q0 -135 -59 -223q59 -85 59 -207q0 -407 -506 -407q-160 0 -344 28q-39 11 -39 39v86q0 16 12 25.5t29 9.5h4q198 -20 332 -20h6q152 0 229.5 53.5t77.5 185.5q0 71 -27 113t-83 83q-40 29 -111 70l-229 138 q-41 24 -62 37.5t-55.5 38t-52.5 44t-41.5 49t-35 60t-20 70.5t-8.5 86zM274 754q0 -71 47 -126q50 -58 136 -108l225 -131q87 -52 137 -88q15 41 15 66v28q0 69 -27 110.5t-81 81.5q-34 25 -101 66l-185 113q-12 8 -45.5 28.5t-58 37t-43.5 30.5q-19 -50 -19 -108z" />
<glyph unicode="&#xa8;" horiz-adv-x="763" d="M123 1352v166q0 16 12.5 28.5t28.5 12.5h80q16 0 28.5 -12.5t12.5 -28.5v-166q0 -16 -12 -27.5t-29 -11.5h-80q-17 0 -29 11.5t-12 27.5zM481 1352v166q0 16 12.5 28.5t28.5 12.5h80q16 0 28.5 -12.5t12.5 -28.5v-166q0 -16 -12 -27.5t-29 -11.5h-80q-17 0 -29 11.5 t-12 27.5z" />
<glyph unicode="&#xa9;" horiz-adv-x="1536" d="M102 766q0 143 54 263.5t141 208.5q88 89 207.5 143.5t261.5 54.5q143 0 263 -55t208 -143q88 -89 142.5 -209.5t54.5 -262.5t-54.5 -261.5t-142.5 -207.5q-87 -87 -207.5 -141t-263.5 -54t-262 53.5t-207 141.5t-141.5 207t-53.5 262zM190 766q0 -190 98.5 -326 t253.5 -202q105 -45 224 -45q239 0 409 166q76 73 122 177.5t46 229.5q0 192 -98.5 328.5t-253.5 204.5q-106 47 -225 47q-189 0 -327 -100t-203 -254q-46 -107 -46 -226zM444 705v135q0 176 77.5 276.5t236.5 100.5q88 0 186 -17q31 -6 31 -29v-57q0 -24 -27 -24h-6 q-87 10 -184 10q-187 0 -187 -260v-135q0 -259 187 -259q90 0 184 11h4q29 0 29 -27v-55q0 -11 -5.5 -18.5t-18 -11t-21.5 -5t-28 -3t-26 -2.5q-52 -5 -118 -5q-159 0 -236.5 99.5t-77.5 275.5z" />
<glyph unicode="&#xaa;" horiz-adv-x="618" d="M61 1063v14q0 55 21 93t62 58.5t90.5 29t117.5 8.5h66v26q0 69 -24.5 99t-86.5 30q-80 0 -172 -10h-4q-12 0 -20.5 7.5t-8.5 19.5v43q0 11 7 18t21.5 11t26 6t29.5 3.5t24 2.5q42 6 97 6q120 0 177 -58t57 -178v-370q0 -27 -21 -33q-87 -27 -201 -27q-132 0 -195 44.5 t-63 156.5zM180 1063q0 -61 32 -83t107 -22q55 0 101 11v211h-66q-36 -1 -58.5 -3.5t-47 -8.5t-38 -17t-22 -29.5t-8.5 -44.5v-14z" />
<glyph unicode="&#xab;" horiz-adv-x="1257" d="M61 567q0 35 23 58l346 346q20 20 43 20h119q22 0 22 -18q0 -15 -12 -27l-364 -379l364 -379q12 -12 12 -26q0 -19 -22 -19h-119q-22 0 -43 21l-346 346q-23 23 -23 57zM594 567q0 36 22 58l347 346q20 20 43 20h118q23 0 23 -18q0 -15 -12 -27l-365 -379l365 -379 q12 -12 12 -26q0 -19 -23 -19h-118q-22 0 -43 21l-347 346q-22 22 -22 57z" />
<glyph unicode="&#xac;" d="M184 987v82q0 16 12 24.5t29 8.5h795q35 0 35 -35v-561q0 -16 -12.5 -28.5t-28.5 -12.5h-66q-16 0 -28.5 12.5t-12.5 28.5v448h-682q-17 0 -29 8.5t-12 24.5z" />
<glyph unicode="&#xad;" horiz-adv-x="681" d="M98 559v80q0 16 11 26.5t28 10.5h408q39 0 39 -37v-80q0 -35 -39 -35h-408q-39 0 -39 35z" />
<glyph unicode="&#xae;" horiz-adv-x="1224" d="M61 991q0 182 94.5 313.5t241.5 194.5q99 43 215 43q182 0 314.5 -94.5t195.5 -241.5q43 -99 43 -215q0 -183 -94.5 -312.5t-243.5 -193.5q-99 -43 -215 -43q-182 0 -313.5 94t-194.5 240q-43 99 -43 215zM147 991q0 -153 79.5 -263.5t204.5 -164.5q84 -37 181 -37 q154 0 266 80t166 204q37 84 37 181q0 154 -80 266t-206 166q-84 37 -183 37q-154 0 -264 -80t-164 -206q-37 -84 -37 -183zM385 682v618q0 13 4.5 23t15 15.5t20 9t27 4.5t28.5 1t30.5 -0.5t28.5 -0.5h39q133 0 200.5 -46t67.5 -161v-8q0 -146 -137 -185l157 -256 q4 -7 4 -18q0 -27 -24 -27h-58q-16 0 -24 17l-166 262l-25 6h-81v-254q0 -11 -9 -21t-20 -10h-51q-11 0 -19 9.5t-8 21.5zM489 1026q8 0 48 -1t47 -1q82 0 120.5 24t38.5 89v8q0 65 -38 87.5t-121 22.5h-95v-229z" />
<glyph unicode="&#xaf;" horiz-adv-x="763" d="M47 1417v70q0 16 12 25.5t29 9.5h590q17 0 29 -9.5t12 -25.5v-70q0 -16 -12 -25.5t-29 -9.5h-590q-17 0 -29 9.5t-12 25.5z" />
<glyph unicode="&#xb0;" horiz-adv-x="700" d="M59 1245q0 95 51.5 165t129.5 103q54 23 112 23q96 0 166 -50t103 -128q22 -53 22 -113q0 -96 -50 -165.5t-128 -102.5q-55 -23 -113 -23q-96 0 -165 50.5t-104 128.5q-24 53 -24 112zM172 1245q0 -77 52 -128.5t128 -51.5t128 51.5t52 128.5t-52 128.5t-128 51.5 t-128 -51.5t-52 -128.5z" />
<glyph unicode="&#xb1;" d="M154 18v68q0 16 12 24.5t29 8.5h849q18 0 29.5 -8.5t11.5 -24.5v-68q0 -32 -41 -32h-849q-41 0 -41 32zM154 760v82q0 32 41 32h350v353q0 17 8.5 29t24.5 12h81q16 0 24.5 -12t8.5 -29v-353h352q41 0 41 -32v-82q0 -16 -11.5 -24.5t-29.5 -8.5h-352v-350q0 -17 -8.5 -29 t-24.5 -12h-81q-16 0 -24.5 12t-8.5 29v350h-350q-17 0 -29 8.5t-12 24.5z" />
<glyph unicode="&#xb2;" horiz-adv-x="698" d="M90 709v79q0 63 13 113t40 88.5t56 65.5t73 59l113 78q3 2 19.5 13.5t20 14.5t15.5 13.5t15.5 17.5l9.5 19t8 25t2 30q0 26 -7.5 44t-19.5 28t-34.5 15.5t-44.5 7t-58 1.5q-90 0 -182 -16h-6q-21 0 -21 20v64q0 15 26.5 25.5t68 14.5t71.5 5.5t56 1.5q139 0 211.5 -47 t72.5 -164q0 -67 -34 -117q-35 -52 -119 -108l-107 -72q-35 -24 -54.5 -40t-40 -42t-29.5 -59t-9 -78v-8h360q11 0 19 -5.5t8 -15.5v-75q0 -10 -8 -15.5t-19 -5.5h-460q-25 0 -25 25z" />
<glyph unicode="&#xb3;" horiz-adv-x="692" d="M90 731v60q0 22 21 22h4q101 -12 151 -12q42 0 69.5 2t56 9t44 20.5t25.5 37t10 56.5v22q0 59 -32 92t-91 33h-205q-24 0 -24 23v63q0 23 24 23h201q127 0 127 118v13q0 35 -14.5 57.5t-45 32.5t-60 13t-75.5 3h-12q-27 0 -147 -14h-4q-21 0 -21 22v62q0 15 24.5 25 t62 14.5t67 6t55.5 1.5q141 0 221 -47t80 -164v-14q0 -123 -100 -185q98 -58 98 -178v-22q0 -125 -79.5 -183.5t-219.5 -58.5q-25 0 -55 2t-68 6t-63 14.5t-25 24.5z" />
<glyph unicode="&#xb4;" horiz-adv-x="763" d="M266 1290q0 13 8 21l201 254q2 3 8 10t8 9t7.5 5.5t11.5 4.5t14 1h135q23 0 23 -14q0 -8 -8 -16l-232 -258q-2 -2 -7.5 -9.5t-8 -9.5l-7.5 -6t-10.5 -5t-13.5 -1h-110q-19 0 -19 14z" />
<glyph unicode="&#xb5;" horiz-adv-x="1140" d="M139 -360v1445q0 17 11.5 29t27.5 12h103q16 0 27 -12t11 -29v-673q0 -142 63 -207.5t202 -65.5q144 0 237 29v917q0 17 12.5 29t28.5 12h101q16 0 27 -12t11 -29v-995q0 -35 -38 -47q-152 -57 -379 -57q-165 0 -265 59v-405q0 -17 -12 -29t-28 -12h-99q-16 0 -28.5 12.5 t-12.5 28.5z" />
<glyph unicode="&#xb6;" horiz-adv-x="1273" d="M92 995v70q0 217 130 337t353 120h533q33 0 33 -39v-1843q0 -17 -9.5 -28t-25.5 -11h-47q-16 0 -25.5 11t-9.5 28v1771h-119v-1771q0 -17 -9.5 -28t-25.5 -11h-47q-16 0 -25.5 11t-9.5 28v899h-213q-167 0 -281 68.5t-166 192.5q-36 86 -36 195z" />
<glyph unicode="&#xb7;" horiz-adv-x="438" d="M131 707v190q0 17 11.5 28t27.5 11h98q16 0 27.5 -11t11.5 -28v-190q0 -17 -11.5 -29t-27.5 -12h-98q-16 0 -27.5 12t-11.5 29z" />
<glyph unicode="&#xb8;" horiz-adv-x="749" d="M104 -371q0 12 9 21l198 254q2 2 6 7t6 7l5.5 5.5t6.5 4.5t7 3t9 2.5t11 0.5h136q22 0 22 -14q0 -8 -8 -16l-231 -258q-2 -2 -6 -7t-5.5 -7t-5 -5.5t-6 -5t-6.5 -3.5t-8.5 -2.5t-10.5 -0.5h-110q-19 0 -19 14z" />
<glyph unicode="&#xb9;" horiz-adv-x="577" d="M90 1335v86q0 13 14 19l150 67q27 15 51 15h66q22 0 22 -21v-794q0 -23 -20 -23h-92q-19 0 -19 23v684l-147 -64q-11 -4 -15 -4q-10 0 -10 12z" />
<glyph unicode="&#xba;" horiz-adv-x="659" d="M66 1159v72q0 141 66.5 219t199.5 78t198.5 -77.5t65.5 -219.5v-72q0 -142 -65.5 -219.5t-198.5 -77.5t-199.5 78t-66.5 219zM188 1159q0 -92 33 -141t111 -49q77 0 108 48.5t31 141.5v72q0 93 -31 140.5t-108 47.5q-78 0 -111 -48t-33 -140v-72z" />
<glyph unicode="&#xbb;" horiz-adv-x="1257" d="M111 162q0 14 12 26l364 379l-364 379q-12 12 -12 27q0 18 22 18h119q23 0 43 -20l346 -346q23 -23 23 -58q0 -34 -23 -57l-346 -346q-21 -21 -43 -21h-119q-22 0 -22 19zM643 162q0 14 12 26l365 379l-365 379q-12 12 -12 27q0 18 23 18h118q23 0 43 -20l347 -346 q22 -22 22 -58q0 -35 -22 -57l-347 -346q-21 -21 -43 -21h-118q-23 0 -23 19z" />
<glyph unicode="&#xbc;" horiz-adv-x="1527" d="M90 1335v86q0 13 14 19l150 67q27 15 51 15h66q22 0 22 -21v-794q0 -23 -20 -23h-92q-19 0 -19 23v684l-147 -64q-11 -4 -15 -4q-10 0 -10 12zM170 8q0 14 8 25l856 1450q2 3 5.5 9t5 8.5t5 7t6 6.5t6.5 4t8.5 3t10.5 1h105q16 0 16 -13q0 -6 -10 -26l-856 -1450l-4 -8 l-4 -8t-4 -7t-5 -6.5t-5 -4.5t-6 -4t-7.5 -2t-9.5 -1h-101q-20 0 -20 16zM858 233v89q0 35 12 51l322 452q8 13 16 13h99q24 0 24 -23v-496h82q25 0 25 -22v-64q0 -22 -25 -22h-82v-184q0 -11 -6 -19t-16 -8h-86q-10 0 -16.5 8.5t-6.5 18.5v184h-317q-25 0 -25 22zM969 328 q0 -9 16 -9h215v316q0 12 -4 12q-5 0 -12 -10l-211 -299q-4 -7 -4 -10z" />
<glyph unicode="&#xbd;" horiz-adv-x="1542" d="M90 1335v86q0 13 14 19l150 67q27 15 51 15h66q22 0 22 -21v-794q0 -23 -20 -23h-92q-19 0 -19 23v684l-147 -64q-11 -4 -15 -4q-10 0 -10 12zM170 8q0 14 8 25l856 1450q2 3 5.5 9t5 8.5t5 7t6 6.5t6.5 4t8.5 3t10.5 1h105q16 0 16 -13q0 -6 -10 -26l-856 -1450l-4 -8 l-4 -8t-4 -7t-5 -6.5t-5 -4.5t-6 -4t-7.5 -2t-9.5 -1h-101q-20 0 -20 16zM934 25v81q0 62 12.5 111t39 86.5t56.5 64.5t74 56l113 76q2 1 17.5 12t17.5 13t14.5 12t14.5 14.5t10 15t9.5 19.5t4 21.5t2.5 27.5q0 61 -36.5 77.5t-127.5 16.5q-106 0 -182 -14h-6q-21 0 -21 20 v64q0 14 27 24t67.5 14t71 5.5t55.5 1.5q139 0 212 -46t73 -163q0 -65 -35 -117q-34 -50 -119 -108l-106 -74q-30 -21 -44 -31t-35 -30t-30 -38.5t-16.5 -46.5t-7.5 -63v-10h360q11 0 19 -5.5t8 -15.5v-76q0 -20 -27 -20h-461q-24 0 -24 25z" />
<glyph unicode="&#xbe;" horiz-adv-x="1689" d="M90 731v60q0 22 21 22h4q101 -12 151 -12q42 0 69.5 2t56 9t44 20.5t25.5 37t10 56.5v22q0 59 -32 92t-91 33h-205q-24 0 -24 23v63q0 23 24 23h201q127 0 127 118v13q0 35 -14.5 57.5t-45 32.5t-60 13t-75.5 3h-12q-27 0 -147 -14h-4q-21 0 -21 22v62q0 15 24.5 25 t62 14.5t67 6t55.5 1.5q141 0 221 -47t80 -164v-14q0 -123 -100 -185q98 -58 98 -178v-22q0 -125 -79.5 -183.5t-219.5 -58.5q-25 0 -55 2t-68 6t-63 14.5t-25 24.5zM332 8q0 14 8 25l856 1450q2 3 5.5 9t5 8.5t5 7t6 6.5t6.5 4t8.5 3t10.5 1h105q16 0 16 -13q0 -6 -10 -26 l-856 -1450l-4 -8l-4 -8t-4 -7t-5 -6.5t-5 -4.5t-6 -4t-7.5 -2t-9.5 -1h-101q-20 0 -20 16zM1020 233v89q0 35 12 51l322 452q10 13 16 13h98q25 0 25 -23v-496h82q24 0 24 -22v-64q0 -22 -24 -22h-82v-184q0 -10 -6.5 -18.5t-16.5 -8.5h-86q-10 0 -16 8t-6 19v184h-318 q-24 0 -24 22zM1130 328q0 -9 17 -9h215v316q0 12 -4 12q-5 0 -12 -10l-211 -299q-5 -8 -5 -10z" />
<glyph unicode="&#xbf;" horiz-adv-x="913" d="M109 -78q0 73 22.5 123.5t69.5 112.5q32 42 94 114l92 105q8 9 26 29t26.5 29.5t21.5 29t19 35t11 39t5 49.5v100q0 16 12 27.5t29 11.5h90q17 0 28 -11.5t11 -27.5v-100q0 -105 -33 -170.5t-103 -138.5l-94 -105q-3 -4 -23 -25.5t-24.5 -27t-20 -25t-20.5 -29t-15 -29 t-13.5 -35t-7 -37t-3.5 -44.5v-24q0 -85 52 -116.5t157 -31.5q118 0 277 19h6q30 0 30 -35v-72q0 -24 -6.5 -33.5t-27.5 -13.5q-137 -27 -279 -27q-409 0 -409 310v24zM494 897v190q0 39 38 39h99q17 0 29 -11.5t12 -27.5v-190q0 -17 -12 -29t-29 -12h-99q-16 0 -27 12 t-11 29z" />
<glyph unicode="&#xc0;" horiz-adv-x="1296" d="M59 33q0 8 2 14l379 1333q19 73 72 114.5t137 41.5q83 0 135.5 -40.5t71.5 -113.5l379 -1335q2 -6 2 -14q0 -33 -35 -33h-121q-24 0 -34 31l-134 471h-530l-131 -471q-4 -12 -14.5 -21.5t-22.5 -9.5h-121q-35 0 -35 33zM373 1931q0 15 22 15h135q7 0 13 -1.5t9.5 -2.5 t8.5 -5t6.5 -5.5t7.5 -8.5t7 -8l198 -254q8 -8 8 -21q0 -14 -18 -14h-111q-8 0 -13.5 1t-10.5 5l-7.5 6t-8 9.5t-7.5 9.5l-231 258q-8 10 -8 16zM422 664h452l-186 673q-10 37 -39 37q-31 0 -41 -37z" />
<glyph unicode="&#xc1;" horiz-adv-x="1296" d="M59 33q0 8 2 14l379 1333q19 73 72 114.5t137 41.5q83 0 135.5 -40.5t71.5 -113.5l379 -1335q2 -6 2 -14q0 -33 -35 -33h-121q-24 0 -34 31l-134 471h-530l-131 -471q-4 -12 -14.5 -21.5t-22.5 -9.5h-121q-35 0 -35 33zM422 664h452l-186 673q-10 37 -39 37 q-31 0 -41 -37zM545 1640q0 13 8 21l201 254q3 3 7 8.5t6.5 8l6 6t7.5 5t9.5 2.5t12.5 1h135q23 0 23 -15q0 -7 -9 -16l-231 -258q-2 -2 -7.5 -9.5t-8 -9.5l-7.5 -6t-10.5 -5t-13.5 -1h-111q-18 0 -18 14z" />
<glyph unicode="&#xc2;" horiz-adv-x="1296" d="M59 33q0 8 2 14l379 1333q19 73 72 114.5t137 41.5q83 0 135.5 -40.5t71.5 -113.5l379 -1335q2 -6 2 -14q0 -33 -35 -33h-121q-24 0 -34 31l-134 471h-530l-131 -471q-4 -12 -14.5 -21.5t-22.5 -9.5h-121q-35 0 -35 33zM317 1640q0 12 9 21l196 254q3 3 7 8.5t6.5 8l6 6 t7.5 5t9.5 2.5t12.5 1h174q7 0 13 -1.5t9.5 -2.5t8.5 -5t6.5 -5.5t7.5 -8.5t7 -8l194 -254q8 -8 8 -21q0 -14 -18 -14h-107q-8 0 -13.5 1t-10.5 5l-7.5 6t-8 9.5t-7.5 9.5l-168 198l-170 -198q-2 -2 -7.5 -9.5t-8 -9.5l-7.5 -6t-10.5 -5t-13.5 -1h-106q-19 0 -19 14z M422 664h452l-186 673q-10 37 -39 37q-31 0 -41 -37z" />
<glyph unicode="&#xc3;" horiz-adv-x="1296" d="M59 33q0 8 2 14l379 1333q19 73 72 114.5t137 41.5q83 0 135.5 -40.5t71.5 -113.5l379 -1335q2 -6 2 -14q0 -33 -35 -33h-121q-24 0 -34 31l-134 471h-530l-131 -471q-4 -12 -14.5 -21.5t-22.5 -9.5h-121q-35 0 -35 33zM291 1667v43q0 106 48.5 164.5t145.5 58.5 q61 0 123 -49l146 -115q37 -28 71 -28q36 0 49 21.5t13 68.5v47q0 14 10.5 24.5t24.5 10.5h63q14 0 23.5 -10.5t9.5 -24.5v-47q0 -109 -45 -162t-148 -53q-76 0 -131 43l-125 100q-8 6 -22 18t-19.5 15.5t-17 7.5t-25.5 4q-37 0 -50 -23t-13 -71v-43q0 -14 -10.5 -24.5 t-24.5 -10.5h-63q-14 0 -23.5 10.5t-9.5 24.5zM422 664h452l-186 673q-10 37 -39 37q-31 0 -41 -37z" />
<glyph unicode="&#xc4;" horiz-adv-x="1296" d="M59 33q0 8 2 14l379 1333q19 73 72 114.5t137 41.5q83 0 135.5 -40.5t71.5 -113.5l379 -1335q2 -6 2 -14q0 -33 -35 -33h-121q-24 0 -34 31l-134 471h-530l-131 -471q-4 -12 -14.5 -21.5t-22.5 -9.5h-121q-35 0 -35 33zM401 1694v166q0 16 12.5 28.5t28.5 12.5h80 q16 0 28.5 -12.5t12.5 -28.5v-166q0 -16 -12 -27.5t-29 -11.5h-80q-17 0 -29 11.5t-12 27.5zM422 664h452l-186 673q-10 37 -39 37q-31 0 -41 -37zM760 1694v166q0 16 12 28.5t29 12.5h80q17 0 29 -12.5t12 -28.5v-166q0 -16 -12 -27.5t-29 -11.5h-80q-17 0 -29 11.5 t-12 27.5z" />
<glyph unicode="&#xc5;" horiz-adv-x="1296" d="M59 33q0 8 2 14l379 1333q19 73 72 114.5t137 41.5q83 0 135.5 -40.5t71.5 -113.5l379 -1335q2 -6 2 -14q0 -33 -35 -33h-121q-24 0 -34 31l-134 471h-530l-131 -471q-4 -12 -14.5 -21.5t-22.5 -9.5h-121q-35 0 -35 33zM422 664h452l-186 673q-10 37 -39 37 q-31 0 -41 -37zM438 1798q0 90 60 149.5t149 59.5t148 -60t59 -149t-59 -148t-148 -59t-149 59t-60 148zM541 1800q0 -45 30.5 -76.5t75.5 -31.5t77 31.5t32 76.5t-32 76t-77 31t-75.5 -31t-30.5 -76z" />
<glyph unicode="&#xc6;" horiz-adv-x="1759" d="M39 33q0 8 2 14l379 1321q48 154 209 154h997q10 0 15.5 -9t5.5 -20v-109q0 -24 -23 -24h-586v-490h568q16 0 28.5 -12t12.5 -29v-77q0 -16 -12.5 -28.5t-28.5 -12.5h-568v-344q0 -92 26 -139t95 -63q45 -11 131 -11h334q23 0 23 -25v-100q0 -11 -3.5 -17.5t-13.5 -9.5 t-16.5 -4t-23.5 -2t-23 -1q-109 -9 -279 -9q-220 0 -328 88.5t-108 292.5v135h-490l-131 -471q-11 -31 -36 -31h-121q-35 0 -35 33zM401 664h451v696h-223q-30 0 -41 -35z" />
<glyph unicode="&#xc7;" horiz-adv-x="1116" d="M123 618v285q0 342 176 504q140 129 365 129q126 0 344 -33q32 -4 32 -26v-105q0 -13 -5 -17.5t-19 -4.5h-6q-241 18 -344 18q-357 0 -357 -465v-285q0 -216 85.5 -340t271.5 -124q117 0 271 11l67 5h8q32 0 32 -33v-84q0 -13 -6 -22t-21 -14.5t-24 -7.5t-30 -4.5 t-25 -3.5q-97 -15 -274 -15q-361 0 -492 324q-49 120 -49 308zM365 -371q0 8 8 21l198 254q9 11 14.5 16t15 9.5t22.5 4.5h135q22 0 22 -14q0 -8 -8 -16l-231 -258q-2 -2 -7.5 -9.5t-8 -9.5l-7.5 -6t-10.5 -5t-13.5 -1h-111q-18 0 -18 14z" />
<glyph unicode="&#xc8;" horiz-adv-x="1128" d="M160 367v788q0 204 108 292.5t328 88.5q305 0 399 -12q21 -5 21 -29v-102q0 -25 -23 -25h-395q-53 0 -89.5 -4t-70.5 -15.5t-54.5 -35t-28.5 -59.5q-9 -40 -9 -99v-285h629q17 0 29 -12t12 -29v-77q0 -16 -12 -28.5t-29 -12.5h-629v-344q0 -92 26 -139t95 -63 q45 -11 131 -11h395q23 0 23 -25v-104q0 -8 -3 -14.5t-8.5 -10t-12.5 -5.5t-16 -2.5t-18.5 -1t-19.5 -0.5h-20q-26 0 -102.5 -2.5t-117.5 -2.5h-102q-220 0 -328 88.5t-108 292.5zM322 1929q0 15 22 15h135q8 0 14 -1t12 -5.5t8 -5.5t9 -9.5t8 -9.5l199 -254q8 -8 8 -21 q0 -14 -18 -14h-111q-8 0 -13.5 1t-10.5 5l-7.5 6t-8 9.5t-7.5 9.5l-231 258q-8 8 -8 16z" />
<glyph unicode="&#xc9;" horiz-adv-x="1128" d="M160 367v788q0 204 108 292.5t328 88.5q305 0 399 -12q21 -5 21 -29v-102q0 -25 -23 -25h-395q-53 0 -89.5 -4t-70.5 -15.5t-54.5 -35t-28.5 -59.5q-9 -40 -9 -99v-285h629q17 0 29 -12t12 -29v-77q0 -16 -12 -28.5t-29 -12.5h-629v-344q0 -92 26 -139t95 -63 q45 -11 131 -11h395q23 0 23 -25v-104q0 -8 -3 -14.5t-8.5 -10t-12.5 -5.5t-16 -2.5t-18.5 -1t-19.5 -0.5h-20q-26 0 -102.5 -2.5t-117.5 -2.5h-102q-220 0 -328 88.5t-108 292.5zM477 1640q0 13 8 21l201 254q3 3 7 8.5t6.5 8l6 6t7.5 5t9.5 2.5t12.5 1h135q23 0 23 -15 q0 -8 -8 -16l-232 -258q-2 -2 -7.5 -9.5t-8 -9.5l-7.5 -6t-10.5 -5t-13.5 -1h-110q-19 0 -19 14z" />
<glyph unicode="&#xca;" horiz-adv-x="1128" d="M160 367v788q0 204 108 292.5t328 88.5q305 0 399 -12q21 -5 21 -29v-102q0 -25 -23 -25h-395q-53 0 -89.5 -4t-70.5 -15.5t-54.5 -35t-28.5 -59.5q-9 -40 -9 -99v-285h629q17 0 29 -12t12 -29v-77q0 -16 -12 -28.5t-29 -12.5h-629v-344q0 -92 26 -139t95 -63 q45 -11 131 -11h395q23 0 23 -25v-104q0 -8 -3 -14.5t-8.5 -10t-12.5 -5.5t-16 -2.5t-18.5 -1t-19.5 -0.5h-20q-26 0 -102.5 -2.5t-117.5 -2.5h-102q-220 0 -328 88.5t-108 292.5zM252 1640q0 13 8 21l197 254q3 3 7 8.5t6.5 8l6 6t7.5 5t9.5 2.5t12.5 1h174q8 0 14 -1 t12 -5.5t8 -5.5t9 -9.5t8 -9.5l195 -254q8 -8 8 -21q0 -14 -19 -14h-106q-8 0 -13.5 1t-10.5 5l-7.5 6t-8 9.5t-7.5 9.5l-168 198l-170 -198q-2 -2 -7.5 -9.5t-8 -9.5l-7.5 -6t-10.5 -5t-13.5 -1h-107q-18 0 -18 14z" />
<glyph unicode="&#xcb;" horiz-adv-x="1128" d="M160 367v788q0 204 108 292.5t328 88.5q305 0 399 -12q21 -5 21 -29v-102q0 -25 -23 -25h-395q-53 0 -89.5 -4t-70.5 -15.5t-54.5 -35t-28.5 -59.5q-9 -40 -9 -99v-285h629q17 0 29 -12t12 -29v-77q0 -16 -12 -28.5t-29 -12.5h-629v-344q0 -92 26 -139t95 -63 q45 -11 131 -11h395q23 0 23 -25v-104q0 -8 -3 -14.5t-8.5 -10t-12.5 -5.5t-16 -2.5t-18.5 -1t-19.5 -0.5h-20q-26 0 -102.5 -2.5t-117.5 -2.5h-102q-220 0 -328 88.5t-108 292.5zM348 1698v166q0 16 12 28.5t29 12.5h80q17 0 29 -12.5t12 -28.5v-166q0 -16 -12 -27.5 t-29 -11.5h-80q-17 0 -29 11.5t-12 27.5zM707 1698v166q0 16 12.5 28.5t28.5 12.5h79q17 0 29 -12.5t12 -28.5v-166q0 -16 -12 -27.5t-29 -11.5h-79q-17 0 -29 11.5t-12 27.5z" />
<glyph unicode="&#xcc;" horiz-adv-x="546" d="M-10 1931q0 15 22 15h135q7 0 13 -1.5t9.5 -2.5t8.5 -5t6.5 -5.5t7.5 -8.5t7 -8l198 -254q9 -9 9 -21q0 -14 -19 -14h-111q-8 0 -13.5 1t-10.5 5l-7.5 6t-8 9.5t-7.5 9.5l-231 258q-8 10 -8 16zM180 41v1442q0 17 10.5 28t26.5 11h113q16 0 26.5 -11t10.5 -28v-1442 q0 -17 -10.5 -29t-26.5 -12h-113q-16 0 -26.5 12t-10.5 29z" />
<glyph unicode="&#xcd;" horiz-adv-x="546" d="M141 1640q0 12 9 21l200 254q3 3 7 8.5t6.5 8l6 6t7.5 5t9.5 2.5t12.5 1h136q22 0 22 -15q0 -8 -8 -16l-232 -258q-2 -2 -7.5 -9.5t-8 -9.5l-7.5 -6t-10.5 -5t-13.5 -1h-110q-19 0 -19 14zM180 41v1442q0 17 10.5 28t26.5 11h113q16 0 26.5 -11t10.5 -28v-1442 q0 -17 -10.5 -29t-26.5 -12h-113q-16 0 -26.5 12t-10.5 29z" />
<glyph unicode="&#xce;" horiz-adv-x="546" d="M-76 1640q0 13 8 21l197 254q3 3 7 8.5t6.5 8l6 6t7.5 5t9.5 2.5t12.5 1h174q8 0 14 -1t12 -5.5t8 -5.5t9 -9.5t8 -9.5l195 -254q8 -8 8 -21q0 -14 -18 -14h-107q-8 0 -13.5 1t-10.5 5l-7.5 6t-8 9.5t-7.5 9.5l-168 198l-170 -198q-2 -2 -7.5 -9.5t-8 -9.5l-7.5 -6 t-10.5 -5t-13.5 -1h-106q-19 0 -19 14zM180 41v1442q0 17 10.5 28t26.5 11h113q16 0 26.5 -11t10.5 -28v-1442q0 -17 -10.5 -29t-26.5 -12h-113q-16 0 -26.5 12t-10.5 29z" />
<glyph unicode="&#xcf;" horiz-adv-x="546" d="M14 1696v166q0 16 12 28.5t29 12.5h80q17 0 29 -12.5t12 -28.5v-166q0 -16 -12 -27.5t-29 -11.5h-80q-17 0 -29 11.5t-12 27.5zM180 41v1442q0 17 10.5 28t26.5 11h113q16 0 26.5 -11t10.5 -28v-1442q0 -17 -10.5 -29t-26.5 -12h-113q-16 0 -26.5 12t-10.5 29zM373 1696 v166q0 16 12.5 28.5t28.5 12.5h80q16 0 28.5 -12.5t12.5 -28.5v-166q0 -16 -12 -27.5t-29 -11.5h-80q-17 0 -29 11.5t-12 27.5z" />
<glyph unicode="&#xd0;" horiz-adv-x="1312" d="M41 752v77q0 17 12.5 29t28.5 12h78v594q0 43 47 53q13 3 57 6q154 13 311 13q306 0 463.5 -163t157.5 -474v-276q0 -310 -158 -473.5t-463 -163.5q-263 0 -372 20q-43 6 -43 51v654h-78q-16 0 -28.5 12.5t-12.5 28.5zM348 150q55 -5 103 -5h124q223 0 329 120.5 t106 357.5v276q0 238 -105.5 357.5t-329.5 119.5q-149 0 -227 -6v-500h211q17 0 29 -12t12 -29v-77q0 -16 -12 -28.5t-29 -12.5h-211v-561z" />
<glyph unicode="&#xd1;" horiz-adv-x="1392" d="M160 25v1439q0 24 17.5 41t41.5 17h113q40 0 55 -7.5t29 -33.5l628 -1196l5 -6q2 0 2 6v1198q0 17 10 28t26 11h109q16 0 26.5 -11t10.5 -28v-1424q0 -25 -17.5 -42t-41.5 -17h-127q-49 0 -66 33l-633 1202q-2 6 -6 6q-2 0 -2 -6v-1196q0 -17 -10.5 -28t-26.5 -11h-106 q-19 0 -28 5t-9 20zM313 1663v43q0 105 49 164t146 59q61 0 123 -49l145 -115q37 -28 72 -28q36 0 48.5 21t12.5 69v47q0 14 10.5 24.5t24.5 10.5h64q14 0 23 -10t9 -25v-47q0 -109 -44.5 -162t-147.5 -53q-76 0 -131 43l-125 100q-8 6 -22 18t-19.5 15.5t-17 7.5t-25.5 4 q-37 0 -50.5 -23.5t-13.5 -70.5v-43q0 -14 -10 -24.5t-24 -10.5h-64q-14 0 -23.5 10.5t-9.5 24.5z" />
<glyph unicode="&#xd2;" horiz-adv-x="1353" d="M123 629v264q0 303 138.5 473t416.5 170q141 0 247.5 -45t173 -130t99.5 -202t33 -266v-264q0 -149 -33 -266t-99.5 -202t-173 -130t-247.5 -45q-278 0 -416.5 170t-138.5 473zM311 629q0 -475 367 -475q100 0 172 34t113 99t60 149t19 193v264q0 110 -19 193.5 t-60 148.5t-113 99t-172 34q-367 0 -367 -475v-264zM397 1931q0 15 23 15h135q8 0 14 -1t12 -5.5t8 -5.5t9 -9.5t8 -9.5l199 -254q8 -8 8 -21q0 -14 -18 -14h-111q-8 0 -13.5 1t-10.5 5l-7.5 6t-8 9.5t-7.5 9.5l-231 258q-9 11 -9 16z" />
<glyph unicode="&#xd3;" horiz-adv-x="1353" d="M123 629v264q0 303 138.5 473t416.5 170q141 0 247.5 -45t173 -130t99.5 -202t33 -266v-264q0 -149 -33 -266t-99.5 -202t-173 -130t-247.5 -45q-278 0 -416.5 170t-138.5 473zM311 629q0 -475 367 -475q100 0 172 34t113 99t60 149t19 193v264q0 110 -19 193.5 t-60 148.5t-113 99t-172 34q-367 0 -367 -475v-264zM520 1640q0 13 8 21l201 254q3 3 7 8.5t6.5 8l6 6t7.5 5t9.5 2.5t12.5 1h135q23 0 23 -15q0 -8 -8 -16l-232 -258q-2 -2 -7.5 -9.5t-8 -9.5l-7.5 -6t-10.5 -5t-13.5 -1h-110q-19 0 -19 14z" />
<glyph unicode="&#xd4;" horiz-adv-x="1353" d="M123 629v264q0 303 138.5 473t416.5 170q141 0 247.5 -45t173 -130t99.5 -202t33 -266v-264q0 -149 -33 -266t-99.5 -202t-173 -130t-247.5 -45q-278 0 -416.5 170t-138.5 473zM311 629q0 -475 367 -475q100 0 172 34t113 99t60 149t19 193v264q0 110 -19 193.5 t-60 148.5t-113 99t-172 34q-367 0 -367 -475v-264zM336 1642q0 13 8 21l197 254q3 3 7 8.5t6.5 8l6 6t7.5 5t9.5 2.5t12.5 1h174q8 0 14 -1t12 -5.5t8 -5.5t9 -9.5t8 -9.5l195 -254q8 -8 8 -21q0 -14 -19 -14h-106q-8 0 -13.5 1t-10.5 5l-7.5 6t-8 9.5t-7.5 9.5l-168 199 l-170 -199q-2 -2 -7.5 -9.5t-8 -9.5l-7.5 -6t-10.5 -5t-13.5 -1h-107q-18 0 -18 14z" />
<glyph unicode="&#xd5;" horiz-adv-x="1353" d="M123 629v264q0 303 138.5 473t416.5 170q141 0 247.5 -45t173 -130t99.5 -202t33 -266v-264q0 -149 -33 -266t-99.5 -202t-173 -130t-247.5 -45q-278 0 -416.5 170t-138.5 473zM311 629q0 -475 367 -475q100 0 172 34t113 99t60 149t19 193v264q0 110 -19 193.5 t-60 148.5t-113 99t-172 34q-367 0 -367 -475v-264zM319 1667v43q0 105 49 164t146 59q61 0 123 -49l145 -115q37 -28 72 -28q36 0 48.5 21t12.5 69v47q0 14 10.5 24.5t24.5 10.5h64q14 0 23.5 -10.5t9.5 -24.5v-47q0 -109 -45 -162t-148 -53q-76 0 -131 43l-125 100 q-8 6 -22 18t-19.5 15.5t-17 7.5t-25.5 4q-37 0 -50 -23t-13 -71v-43q0 -14 -10.5 -24.5t-24.5 -10.5h-64q-14 0 -23.5 10.5t-9.5 24.5z" />
<glyph unicode="&#xd6;" horiz-adv-x="1353" d="M123 629v264q0 303 138.5 473t416.5 170q141 0 247.5 -45t173 -130t99.5 -202t33 -266v-264q0 -149 -33 -266t-99.5 -202t-173 -130t-247.5 -45q-278 0 -416.5 170t-138.5 473zM311 629q0 -475 367 -475q100 0 172 34t113 99t60 149t19 193v264q0 110 -19 193.5 t-60 148.5t-113 99t-172 34q-367 0 -367 -475v-264zM418 1698v166q0 16 12 28.5t29 12.5h80q17 0 29 -12.5t12 -28.5v-166q0 -16 -12 -27.5t-29 -11.5h-80q-17 0 -29 11.5t-12 27.5zM776 1698v166q0 16 12 28.5t29 12.5h80q17 0 29 -12.5t12 -28.5v-166q0 -16 -12 -27.5 t-29 -11.5h-80q-17 0 -29 11.5t-12 27.5z" />
<glyph unicode="&#xd7;" d="M219 500q0 15 17 32l268 269l-268 270q-17 17 -17 31q0 10 10 20l58 58q10 10 22 10q17 0 31 -14l268 -271l271 271q16 16 32 16q11 0 21 -10l57 -58q10 -10 10 -20q0 -17 -16 -33l-270 -270l270 -271q16 -16 16 -32q0 -11 -10 -21l-57 -57q-10 -10 -21 -10q-16 0 -32 16 l-271 270l-268 -268q-16 -16 -33 -16q-10 0 -20 10l-58 57q-10 10 -10 21z" />
<glyph unicode="&#xd8;" horiz-adv-x="1353" d="M57 8q0 10 6 17l148 204q-88 151 -88 400v264q0 303 138.5 473t416.5 170q238 0 377 -131l59 84q31 39 53 39h107q22 0 22 -23q0 -5 -6 -16l-145 -201q86 -154 86 -395v-264q0 -149 -33 -266t-99.5 -202t-173 -130t-247.5 -45q-233 0 -375 129l-63 -90q-31 -39 -52 -39 h-108q-23 0 -23 22zM311 629q0 -116 27 -221l608 847q-92 113 -268 113q-367 0 -367 -475v-264zM410 262q88 -108 268 -108q100 0 172 34t113 99t60 149t19 193v264q0 129 -24 217z" />
<glyph unicode="&#xd9;" horiz-adv-x="1355" d="M154 553v930q0 17 11 28t28 11h110q17 0 28 -11t11 -28v-930q0 -204 76 -306t260 -102t260 102t76 306v930q0 17 11 28t28 11h110q17 0 28 -11t11 -28v-930q0 -279 -130.5 -423t-393.5 -144q-262 0 -393 144.5t-131 422.5zM381 1931q0 15 22 15h136q8 0 14 -1t12 -5.5 t8 -5.5t9 -9.5t8 -9.5l198 -254q9 -9 9 -21q0 -14 -19 -14h-110q-8 0 -13.5 1t-10.5 5l-7.5 6t-8 9.5t-7.5 9.5l-232 258q-8 10 -8 16z" />
<glyph unicode="&#xda;" horiz-adv-x="1355" d="M154 553v930q0 17 11 28t28 11h110q17 0 28 -11t11 -28v-930q0 -204 76 -306t260 -102t260 102t76 306v930q0 17 11 28t28 11h110q17 0 28 -11t11 -28v-930q0 -279 -130.5 -423t-393.5 -144q-262 0 -393 144.5t-131 422.5zM565 1640q0 13 8 21l201 254q3 3 7 8.5t6.5 8 l6 6t7.5 5t9.5 2.5t12.5 1h135q23 0 23 -15q0 -8 -8 -16l-232 -258q-2 -2 -7.5 -9.5t-8 -9.5l-7.5 -6t-10.5 -5t-13.5 -1h-110q-19 0 -19 14z" />
<glyph unicode="&#xdb;" horiz-adv-x="1355" d="M154 553v930q0 17 11 28t28 11h110q17 0 28 -11t11 -28v-930q0 -204 76 -306t260 -102t260 102t76 306v930q0 17 11 28t28 11h110q17 0 28 -11t11 -28v-930q0 -279 -130.5 -423t-393.5 -144q-262 0 -393 144.5t-131 422.5zM330 1640q0 13 8 21l197 254q3 3 7 8.5t6.5 8 l6 6t7.5 5t9.5 2.5t12.5 1h174q8 0 14 -1t12 -5.5t8 -5.5t9 -9.5t8 -9.5l195 -254q8 -8 8 -21q0 -14 -19 -14h-106q-8 0 -13.5 1t-10.5 5l-7.5 6t-8 9.5t-7.5 9.5l-168 198l-170 -198q-2 -2 -7.5 -9.5t-8 -9.5l-7.5 -6t-10.5 -5t-13.5 -1h-107q-18 0 -18 14z" />
<glyph unicode="&#xdc;" horiz-adv-x="1355" d="M154 553v930q0 17 11 28t28 11h110q17 0 28 -11t11 -28v-930q0 -204 76 -306t260 -102t260 102t76 306v930q0 17 11 28t28 11h110q17 0 28 -11t11 -28v-930q0 -279 -130.5 -423t-393.5 -144q-262 0 -393 144.5t-131 422.5zM414 1698v166q0 16 12 28.5t29 12.5h80 q16 0 28 -12t12 -29v-166q0 -16 -11.5 -27.5t-28.5 -11.5h-80q-17 0 -29 11.5t-12 27.5zM772 1698v166q0 16 12 28.5t29 12.5h80q17 0 29 -12.5t12 -28.5v-166q0 -16 -12 -27.5t-29 -11.5h-80q-17 0 -29 11.5t-12 27.5z" />
<glyph unicode="&#xdd;" horiz-adv-x="1193" d="M72 1493q0 29 34 29h125q10 0 21.5 -9.5t15.5 -19.5l283 -664q1 -3 5.5 -12t6 -11.5t5 -9t6 -9t6.5 -6t8.5 -4.5t9.5 -1t9.5 1t8.5 4.5t6.5 6t6 9t5 9t6 11.5t5.5 12l285 664q12 29 35 29h125q34 0 34 -29q0 -11 -6 -23l-317 -712q-26 -56 -50 -87.5t-61 -47.5v-582 q0 -17 -10.5 -29t-26.5 -12h-112q-16 0 -26.5 12t-10.5 29v582q-36 13 -60 45t-51 90l-315 712q-6 12 -6 23zM481 1640q0 13 8 21l201 254q3 3 7 8.5t6.5 8l6 6t7.5 5t9.5 2.5t12.5 1h135q23 0 23 -15q0 -8 -8 -16l-232 -258q-2 -2 -7.5 -9.5t-8 -9.5l-7.5 -6t-10.5 -5 t-13.5 -1h-110q-19 0 -19 14z" />
<glyph unicode="&#xde;" horiz-adv-x="1214" d="M160 41v1442q0 17 10.5 28t26.5 11h112q16 0 25.5 -11t9.5 -28v-142q124 7 199 7q579 0 579 -447v-29q0 -126 -41 -216.5t-119 -143.5t-180 -77.5t-235 -24.5q-144 0 -203 6v-375q0 -17 -8.5 -29t-24.5 -12h-114q-16 0 -26.5 12t-10.5 29zM344 575q32 0 101 -3t102 -3 q195 0 292 67.5t97 235.5v29q0 84 -26.5 140.5t-80 87.5t-121 44t-161.5 13h-109q-63 0 -94 -4v-607z" />
<glyph unicode="&#xdf;" horiz-adv-x="1189" d="M133 43v1010q0 241 116.5 370t348.5 129q211 0 330 -102t119 -303v-25q0 -108 -63 -191.5t-153 -123.5q108 -39 178 -126.5t70 -211.5v-29q0 -219 -130 -336.5t-355 -117.5h-17.5h-20t-19.5 0.5t-21 1.5t-19 3t-17 5.5t-12.5 8t-9.5 11.5t-3 15v84q0 22 22 22 q12 0 44.5 -1t43.5 -1q166 0 249 72.5t83 232.5v29q0 125 -87 193.5t-230 68.5h-76q-16 0 -28.5 12.5t-12.5 28.5v59q0 17 12.5 29t28.5 12h76q133 0 209.5 63.5t76.5 186.5v25q0 122 -68.5 185t-199.5 63q-151 0 -217 -85t-66 -257v-1010q0 -17 -10 -30t-26 -13h-109 q-16 0 -26.5 13t-10.5 30z" />
<glyph unicode="&#xe0;" horiz-adv-x="1062" d="M98 317v25q0 80 25 139.5t67 96t107 58.5t134.5 30t160.5 8h151v82q0 128 -48 179.5t-171 51.5q-155 0 -313 -16h-10q-37 0 -37 33v71q0 33 43 39q169 27 317 27q202 0 301 -95.5t99 -289.5v-715q0 -17 -12 -29t-29 -12h-95q-16 0 -28 12t-12 29v45q-171 -100 -316 -100 q-163 0 -248.5 83.5t-85.5 247.5zM248 1581q0 14 22 14h136q7 0 13 -1.5t9.5 -2t8 -5t6 -5.5t7.5 -7.5t7 -8.5l198 -254q9 -9 9 -21q0 -14 -19 -14h-110q-7 0 -12.5 1.5t-8.5 2.5t-7.5 5t-6 6t-6.5 8t-7 8l-231 258q-8 8 -8 16zM279 319q0 -102 44 -144t144 -42 q80 0 141 20.5t135 61.5v330h-151q-62 0 -104 -3.5t-85 -15.5t-68 -33.5t-40.5 -58.5t-15.5 -90v-25z" />
<glyph unicode="&#xe1;" horiz-adv-x="1062" d="M98 317v25q0 80 25 139.5t67 96t107 58.5t134.5 30t160.5 8h151v82q0 128 -48 179.5t-171 51.5q-155 0 -313 -16h-10q-37 0 -37 33v71q0 33 43 39q169 27 317 27q202 0 301 -95.5t99 -289.5v-715q0 -17 -12 -29t-29 -12h-95q-16 0 -28 12t-12 29v45q-171 -100 -316 -100 q-163 0 -248.5 83.5t-85.5 247.5zM279 319q0 -102 44 -144t144 -42q80 0 141 20.5t135 61.5v330h-151q-62 0 -104 -3.5t-85 -15.5t-68 -33.5t-40.5 -58.5t-15.5 -90v-25zM428 1290q0 13 8 21l201 254q2 3 8 10t8 9t7.5 5.5t11.5 4.5t14 1h135q23 0 23 -14q0 -8 -8 -16 l-232 -258q-2 -2 -7.5 -9.5t-8 -9.5l-7.5 -6t-10.5 -5t-13.5 -1h-111q-18 0 -18 14z" />
<glyph unicode="&#xe2;" horiz-adv-x="1062" d="M98 317v25q0 80 25 139.5t67 96t107 58.5t134.5 30t160.5 8h151v82q0 128 -48 179.5t-171 51.5q-155 0 -313 -16h-10q-37 0 -37 33v71q0 33 43 39q169 27 317 27q202 0 301 -95.5t99 -289.5v-715q0 -17 -12 -29t-29 -12h-95q-16 0 -28 12t-12 29v45q-171 -100 -316 -100 q-163 0 -248.5 83.5t-85.5 247.5zM188 1290q0 12 9 21l196 254q2 3 8 10t8 9t7.5 5.5t11.5 4.5t14 1h174q6 0 11 -0.5t9.5 -2.5t7 -3t7 -5t5.5 -5t6 -7t6 -7l194 -254q8 -8 8 -21q0 -14 -18 -14h-107q-8 0 -13.5 1t-10.5 5l-7.5 6t-8 9.5t-7.5 9.5l-168 198l-170 -198 q-2 -2 -7.5 -9.5t-8 -9.5l-7.5 -6t-10.5 -5t-13.5 -1h-106q-19 0 -19 14zM279 319q0 -102 44 -144t144 -42q80 0 141 20.5t135 61.5v330h-151q-62 0 -104 -3.5t-85 -15.5t-68 -33.5t-40.5 -58.5t-15.5 -90v-25z" />
<glyph unicode="&#xe3;" horiz-adv-x="1062" d="M98 317v25q0 80 25 139.5t67 96t107 58.5t134.5 30t160.5 8h151v82q0 128 -48 179.5t-171 51.5q-155 0 -313 -16h-10q-37 0 -37 33v71q0 33 43 39q169 27 317 27q202 0 301 -95.5t99 -289.5v-715q0 -17 -12 -29t-29 -12h-95q-16 0 -28 12t-12 29v45q-171 -100 -316 -100 q-163 0 -248.5 83.5t-85.5 247.5zM186 1333v43q0 105 49 164t146 59q61 0 123 -49l145 -114q39 -29 72 -29q36 0 48.5 21t12.5 69v47q0 14 10.5 24.5t24.5 10.5h64q14 0 23 -10t9 -25v-47q0 -109 -44.5 -162t-147.5 -53q-76 0 -131 43l-125 100q-8 6 -22 18t-19.5 15.5 t-17 7.5t-25.5 4q-37 0 -50.5 -23.5t-13.5 -70.5v-43q0 -14 -10 -24.5t-24 -10.5h-64q-14 0 -23.5 10.5t-9.5 24.5zM279 319q0 -102 44 -144t144 -42q80 0 141 20.5t135 61.5v330h-151q-62 0 -104 -3.5t-85 -15.5t-68 -33.5t-40.5 -58.5t-15.5 -90v-25z" />
<glyph unicode="&#xe4;" horiz-adv-x="1062" d="M98 317v25q0 80 25 139.5t67 96t107 58.5t134.5 30t160.5 8h151v82q0 128 -48 179.5t-171 51.5q-155 0 -313 -16h-10q-37 0 -37 33v71q0 33 43 39q169 27 317 27q202 0 301 -95.5t99 -289.5v-715q0 -17 -12 -29t-29 -12h-95q-16 0 -28 12t-12 29v45q-171 -100 -316 -100 q-163 0 -248.5 83.5t-85.5 247.5zM274 1352v166q0 16 12 28.5t29 12.5h80q17 0 29 -12.5t12 -28.5v-166q0 -16 -12 -27.5t-29 -11.5h-80q-17 0 -29 11.5t-12 27.5zM279 319q0 -102 44 -144t144 -42q80 0 141 20.5t135 61.5v330h-151q-62 0 -104 -3.5t-85 -15.5t-68 -33.5 t-40.5 -58.5t-15.5 -90v-25zM633 1352v166q0 16 12.5 28.5t28.5 12.5h80q16 0 28.5 -12.5t12.5 -28.5v-166q0 -16 -12 -27.5t-29 -11.5h-80q-17 0 -29 11.5t-12 27.5z" />
<glyph unicode="&#xe5;" horiz-adv-x="1062" d="M98 317v25q0 80 25 139.5t67 96t107 58.5t134.5 30t160.5 8h151v82q0 128 -48 179.5t-171 51.5q-155 0 -313 -16h-10q-37 0 -37 33v71q0 33 43 39q169 27 317 27q202 0 301 -95.5t99 -289.5v-715q0 -17 -12 -29t-29 -12h-95q-16 0 -28 12t-12 29v45q-171 -100 -316 -100 q-163 0 -248.5 83.5t-85.5 247.5zM279 319q0 -102 44 -144t144 -42q80 0 141 20.5t135 61.5v330h-151q-62 0 -104 -3.5t-85 -15.5t-68 -33.5t-40.5 -58.5t-15.5 -90v-25zM317 1440q0 90 60 149.5t149 59.5t148 -60t59 -149t-59 -148t-148 -59t-149 59t-60 148zM420 1442 q0 -45 30.5 -77t75.5 -32t77 32t32 77t-32 75.5t-77 30.5t-75.5 -30.5t-30.5 -75.5z" />
<glyph unicode="&#xe6;" horiz-adv-x="1746" d="M98 324v18q0 81 25 140.5t67 96t107 58t134.5 29.5t160.5 8h153v82q0 128 -48.5 179.5t-172.5 51.5q-155 0 -313 -16h-10q-37 0 -37 33v71q0 33 43 39q169 27 317 27q242 0 340 -144q122 144 334 144q219 0 333 -136t114 -368v-86q0 -45 -39 -45h-682v-66 q0 -156 72 -229.5t227 -73.5q149 0 350 29h10q33 0 33 -29v-69q0 -23 -9.5 -33.5t-31.5 -14.5q-185 -34 -363 -34q-128 0 -210 27t-144 93q-66 -56 -161.5 -88t-207.5 -32q-176 0 -283.5 86.5t-107.5 251.5zM281 324q0 -100 62.5 -147.5t170.5 -47.5q146 0 231 64v350h-153 q-124 0 -199.5 -21.5t-98.5 -86.5q-13 -36 -13 -93v-18zM924 643h542v10q0 334 -268 334q-138 0 -206 -89.5t-68 -244.5v-10z" />
<glyph unicode="&#xe7;" horiz-adv-x="925" d="M102 483v160q0 229 111.5 363.5t325.5 134.5q138 0 256 -23q24 -4 32.5 -12.5t8.5 -32.5v-74q0 -30 -35 -30h-8q-118 14 -254 14q-256 0 -256 -340v-160q0 -340 256 -340q127 0 254 15h8q35 0 35 -31v-74q0 -22 -9 -31.5t-32 -13.5q-113 -22 -256 -22q-213 0 -325 135 t-112 362zM244 -371q0 13 8 21l199 254q2 2 6 7t6 7l5.5 5.5t6.5 4.5t7 3t9 2.5t11 0.5h135q22 0 22 -14q0 -8 -8 -16l-231 -258q-2 -2 -7.5 -9.5t-8 -9.5l-7.5 -6t-10.5 -5t-13.5 -1h-111q-18 0 -18 14z" />
<glyph unicode="&#xe8;" horiz-adv-x="1114" d="M102 477v185q0 224 118.5 351.5t336.5 127.5q220 0 335.5 -126.5t115.5 -352.5v-111q0 -45 -39 -45h-686v-29q0 -171 66 -252.5t218 -81.5q209 0 365 23h10q33 0 33 -29v-69q0 -23 -9.5 -33.5t-31.5 -14.5q-184 -34 -367 -34q-228 0 -346.5 126.5t-118.5 364.5zM283 643 h542v19q0 164 -61.5 242.5t-206.5 78.5q-274 0 -274 -321v-19zM317 1581q0 14 23 14h135q7 0 13 -1.5t9.5 -2t8 -5t6 -5.5t7.5 -7.5t7 -8.5l199 -254q8 -8 8 -21q0 -14 -18 -14h-111q-8 0 -13.5 1t-10.5 5l-7.5 6t-8 9.5t-7.5 9.5l-231 258q-9 9 -9 16z" />
<glyph unicode="&#xe9;" horiz-adv-x="1114" d="M102 477v185q0 224 118.5 351.5t336.5 127.5q220 0 335.5 -126.5t115.5 -352.5v-111q0 -45 -39 -45h-686v-29q0 -171 66 -252.5t218 -81.5q209 0 365 23h10q33 0 33 -29v-69q0 -23 -9.5 -33.5t-31.5 -14.5q-184 -34 -367 -34q-228 0 -346.5 126.5t-118.5 364.5zM283 643 h542v19q0 164 -61.5 242.5t-206.5 78.5q-274 0 -274 -321v-19zM473 1290q0 13 8 21l201 254q2 3 8 10t8 9t7.5 5.5t11.5 4.5t14 1h135q23 0 23 -14q0 -8 -8 -16l-232 -258q-2 -2 -7.5 -9.5t-8 -9.5l-7.5 -6t-10.5 -5t-13.5 -1h-110q-19 0 -19 14z" />
<glyph unicode="&#xea;" horiz-adv-x="1114" d="M102 477v185q0 224 118.5 351.5t336.5 127.5q220 0 335.5 -126.5t115.5 -352.5v-111q0 -45 -39 -45h-686v-29q0 -171 66 -252.5t218 -81.5q209 0 365 23h10q33 0 33 -29v-69q0 -23 -9.5 -33.5t-31.5 -14.5q-184 -34 -367 -34q-228 0 -346.5 126.5t-118.5 364.5zM217 1290 q0 13 8 21l197 254q2 3 8 10t8 9t7.5 5.5t11.5 4.5t14 1h174q7 0 13 -1.5t9.5 -2t8 -5t6 -5.5t7.5 -7.5t7 -8.5l195 -254q8 -8 8 -21q0 -14 -18 -14h-107q-8 0 -13.5 1t-10.5 5l-7.5 6t-8 9.5t-7.5 9.5l-168 198l-170 -198q-2 -2 -7.5 -9.5t-8 -9.5l-7.5 -6t-10.5 -5 t-13.5 -1h-106q-19 0 -19 14zM283 643h542v19q0 164 -61.5 242.5t-206.5 78.5q-274 0 -274 -321v-19z" />
<glyph unicode="&#xeb;" horiz-adv-x="1114" d="M102 477v185q0 224 118.5 351.5t336.5 127.5q220 0 335.5 -126.5t115.5 -352.5v-111q0 -45 -39 -45h-686v-29q0 -171 66 -252.5t218 -81.5q209 0 365 23h10q33 0 33 -29v-69q0 -23 -9.5 -33.5t-31.5 -14.5q-184 -34 -367 -34q-228 0 -346.5 126.5t-118.5 364.5zM283 643 h542v19q0 164 -61.5 242.5t-206.5 78.5q-274 0 -274 -321v-19zM305 1352v166q0 16 12.5 28.5t28.5 12.5h80q16 0 28.5 -12.5t12.5 -28.5v-166q0 -16 -12 -27.5t-29 -11.5h-80q-17 0 -29 11.5t-12 27.5zM664 1352v166q0 16 12 28.5t29 12.5h79q16 0 28.5 -12.5t12.5 -28.5 v-166q0 -16 -12 -27.5t-29 -11.5h-79q-17 0 -29 11.5t-12 27.5z" />
<glyph unicode="&#xec;" horiz-adv-x="505" d="M-37 1581q0 14 23 14h135q7 0 13 -1.5t9.5 -2t8 -5t6 -5.5t7.5 -7.5t7 -8.5l199 -254q8 -8 8 -21q0 -14 -19 -14h-110q-8 0 -13.5 1t-10.5 5l-7.5 6t-8 9.5t-7.5 9.5l-232 258q-8 8 -8 16zM162 41v1044q0 17 12 29t29 12h98q17 0 29 -12t12 -29v-1044q0 -17 -12 -29 t-29 -12h-98q-17 0 -29 12t-12 29z" />
<glyph unicode="&#xed;" horiz-adv-x="505" d="M139 1290q0 13 8 21l201 254q2 3 8 10t8 9t7.5 5.5t11.5 4.5t14 1h135q23 0 23 -14q0 -8 -8 -16l-232 -258q-2 -2 -7.5 -9.5t-8 -9.5l-7.5 -6t-10.5 -5t-13.5 -1h-110q-19 0 -19 14zM162 41v1044q0 17 12 29t29 12h98q17 0 29 -12t12 -29v-1044q0 -17 -12 -29t-29 -12 h-98q-17 0 -29 12t-12 29z" />
<glyph unicode="&#xee;" horiz-adv-x="505" d="M-90 1290q0 13 8 21l197 254q2 3 8 10t8 9t7.5 5.5t11.5 4.5t14 1h174q7 0 13 -1.5t9.5 -2t8 -5t6 -5.5t7.5 -7.5t7 -8.5l195 -254q8 -8 8 -21q0 -14 -19 -14h-106q-8 0 -13.5 1t-10.5 5l-7.5 6t-8 9.5t-7.5 9.5l-168 198l-170 -198q-2 -2 -7.5 -9.5t-8 -9.5l-7.5 -6 t-10.5 -5t-13.5 -1h-107q-18 0 -18 14zM162 41v1044q0 17 12 29t29 12h98q17 0 29 -12t12 -29v-1044q0 -17 -12 -29t-29 -12h-98q-17 0 -29 12t-12 29z" />
<glyph unicode="&#xef;" horiz-adv-x="505" d="M-8 1352v166q0 16 12 28.5t29 12.5h80q17 0 29 -12.5t12 -28.5v-166q0 -16 -12 -27.5t-29 -11.5h-80q-17 0 -29 11.5t-12 27.5zM162 41v1044q0 17 12 29t29 12h98q17 0 29 -12t12 -29v-1044q0 -17 -12 -29t-29 -12h-98q-17 0 -29 12t-12 29zM350 1352v166q0 16 12 28.5 t29 12.5h80q17 0 29 -12.5t12 -28.5v-166q0 -16 -12 -27.5t-29 -11.5h-80q-17 0 -29 11.5t-12 27.5z" />
<glyph unicode="&#xf0;" horiz-adv-x="1116" d="M102 498v112q0 243 115 377.5t342 134.5q148 0 229 -73q-65 170 -301 280l-176 -135q-15 -12 -26 -12t-23 12l-35 39q-6 6 -6 14q0 19 21 35l125 96q-85 28 -162 45q-33 11 -33 31q0 4 2 10l25 70q7 22 28 22q9 0 17 -2q147 -35 254 -75l192 145q11 8 27 8q14 0 24 -10 l35 -37q8 -8 8 -16q0 -13 -20 -29l-150 -115q164 -95 257.5 -219.5t123.5 -320.5q19 -128 19 -275v-112q0 -245 -112.5 -378.5t-340.5 -133.5q-229 0 -344 135t-115 377zM285 498q0 -173 63.5 -265t212.5 -92t211 91.5t62 265.5v112q0 173 -63 266t-212 93t-211.5 -92.5 t-62.5 -266.5v-112z" />
<glyph unicode="&#xf1;" horiz-adv-x="1140" d="M139 41v1044q0 17 11.5 29t27.5 12h103q16 0 27 -12t11 -29v-38q90 49 159 71.5t167 22.5q356 0 356 -426v-674q0 -17 -12 -29t-28 -12h-99q-16 0 -28.5 12t-12.5 29v674q0 140 -49.5 205t-175.5 65q-113 0 -277 -80v-864q0 -17 -12 -29t-28 -12h-101q-16 0 -27.5 12 t-11.5 29zM215 1333v43q0 105 49 164t146 59q60 0 122 -49l146 -114q39 -29 72 -29q36 0 48.5 21t12.5 69v47q0 14 10.5 24.5t24.5 10.5h63q14 0 23.5 -10.5t9.5 -24.5v-47q0 -109 -44.5 -162t-147.5 -53q-77 0 -132 43l-124 100q-8 6 -22 18t-19.5 15.5t-17 7.5t-25.5 4 q-37 0 -50.5 -23.5t-13.5 -70.5v-43q0 -14 -10.5 -24.5t-24.5 -10.5h-63q-14 0 -23.5 10.5t-9.5 24.5z" />
<glyph unicode="&#xf2;" horiz-adv-x="1116" d="M102 485v156q0 234 116 367t339 133q224 0 340.5 -133t116.5 -367v-156q0 -234 -116.5 -366.5t-340.5 -132.5q-223 0 -339 132.5t-116 366.5zM260 1581q0 14 23 14h135q7 0 13 -1.5t9.5 -2t8 -5t6 -5.5t7.5 -7.5t7 -8.5l199 -254q8 -8 8 -21q0 -14 -19 -14h-110 q-8 0 -13.5 1t-10.5 5l-7.5 6t-8 9.5t-7.5 9.5l-232 258q-8 8 -8 16zM283 485q0 -342 274 -342q143 0 210 90.5t67 251.5v156q0 161 -66.5 251.5t-210.5 90.5q-274 0 -274 -342v-156z" />
<glyph unicode="&#xf3;" horiz-adv-x="1116" d="M102 485v156q0 234 116 367t339 133q224 0 340.5 -133t116.5 -367v-156q0 -234 -116.5 -366.5t-340.5 -132.5q-223 0 -339 132.5t-116 366.5zM283 485q0 -342 274 -342q143 0 210 90.5t67 251.5v156q0 161 -66.5 251.5t-210.5 90.5q-274 0 -274 -342v-156zM457 1290 q0 13 8 21l201 254q2 3 8 10t8 9t7.5 5.5t11.5 4.5t14 1h135q22 0 22 -14q0 -8 -8 -16l-231 -258q-2 -2 -7.5 -9.5t-8 -9.5l-7.5 -6t-10.5 -5t-13.5 -1h-111q-18 0 -18 14z" />
<glyph unicode="&#xf4;" horiz-adv-x="1116" d="M102 485v156q0 234 116 367t339 133q224 0 340.5 -133t116.5 -367v-156q0 -234 -116.5 -366.5t-340.5 -132.5q-223 0 -339 132.5t-116 366.5zM219 1290q0 13 8 21l197 254q2 3 8 10t8 9t7.5 5.5t11.5 4.5t14 1h174q7 0 13 -1.5t9.5 -2t8 -5t6 -5.5t7.5 -7.5t7 -8.5 l195 -254q8 -8 8 -21q0 -14 -18 -14h-107q-8 0 -13.5 1t-10.5 5l-7.5 6t-8 9.5t-7.5 9.5l-168 198l-170 -198q-2 -2 -7.5 -9.5t-8 -9.5l-7.5 -6t-10.5 -5t-13.5 -1h-106q-19 0 -19 14zM283 485q0 -342 274 -342q143 0 210 90.5t67 251.5v156q0 161 -66.5 251.5t-210.5 90.5 q-274 0 -274 -342v-156z" />
<glyph unicode="&#xf5;" horiz-adv-x="1116" d="M102 485v156q0 234 116 367t339 133q224 0 340.5 -133t116.5 -367v-156q0 -234 -116.5 -366.5t-340.5 -132.5q-223 0 -339 132.5t-116 366.5zM207 1333v43q0 106 48.5 164.5t145.5 58.5q61 0 123 -49l146 -114q39 -29 71 -29q36 0 49 21.5t13 68.5v47q0 14 10.5 24.5 t24.5 10.5h63q14 0 23.5 -10.5t9.5 -24.5v-47q0 -109 -45 -162t-148 -53q-76 0 -131 43l-125 100q-8 6 -22 18t-19.5 15.5t-17 7.5t-25.5 4q-37 0 -50 -23t-13 -71v-43q0 -14 -10.5 -24.5t-24.5 -10.5h-63q-14 0 -23.5 10.5t-9.5 24.5zM283 485q0 -342 274 -342 q143 0 210 90.5t67 251.5v156q0 161 -66.5 251.5t-210.5 90.5q-274 0 -274 -342v-156z" />
<glyph unicode="&#xf6;" horiz-adv-x="1116" d="M102 485v156q0 234 116 367t339 133q224 0 340.5 -133t116.5 -367v-156q0 -234 -116.5 -366.5t-340.5 -132.5q-223 0 -339 132.5t-116 366.5zM283 485q0 -342 274 -342q143 0 210 90.5t67 251.5v156q0 161 -66.5 251.5t-210.5 90.5q-274 0 -274 -342v-156zM295 1352v166 q0 16 12.5 28.5t28.5 12.5h80q16 0 28.5 -12.5t12.5 -28.5v-166q0 -16 -12 -27.5t-29 -11.5h-80q-17 0 -29 11.5t-12 27.5zM653 1352v166q0 16 12.5 28.5t28.5 12.5h80q16 0 28.5 -12.5t12.5 -28.5v-166q0 -16 -12 -27.5t-29 -11.5h-80q-17 0 -29 11.5t-12 27.5z" />
<glyph unicode="&#xf7;" d="M184 760v82q0 32 41 32h789q41 0 41 -32v-82q0 -16 -11.5 -24.5t-29.5 -8.5h-789q-17 0 -29 8.5t-12 24.5zM528 332v182q0 16 12 27.5t29 11.5h99q16 0 27.5 -11.5t11.5 -27.5v-182q0 -16 -11.5 -27.5t-27.5 -11.5h-99q-17 0 -29 11.5t-12 27.5zM528 1079v181q0 16 12 27 t29 11h99q17 0 28 -11t11 -27v-181q0 -17 -11.5 -29t-27.5 -12h-99q-17 0 -29 12t-12 29z" />
<glyph unicode="&#xf8;" horiz-adv-x="1116" d="M33 -55q0 14 8 22l145 197q-84 128 -84 321v156q0 234 116 367t339 133q175 0 287 -86l86 119q9 13 14.5 16.5t18.5 3.5h102q16 0 16 -16q0 -15 -8 -23l-143 -192q84 -127 84 -322v-156q0 -234 -116.5 -366.5t-340.5 -132.5q-173 0 -285 86l-90 -123q-1 -2 -3 -4.5 t-3 -3.5t-2.5 -3t-2 -3t-2 -2l-3 -2t-3.5 -1.5t-3.5 -1t-4 -0.5h-5.5h-101q-16 0 -16 17zM283 485q0 -97 20 -161l438 596q-69 63 -184 63q-274 0 -274 -342v-156zM373 207q69 -64 184 -64q277 0 277 342v156q0 85 -23 160z" />
<glyph unicode="&#xf9;" horiz-adv-x="1140" d="M139 412v673q0 17 12.5 29t28.5 12h99q16 0 28 -12t12 -29v-673q0 -140 50 -205.5t176 -65.5q70 0 134.5 21t141.5 59v864q0 17 12.5 29t28.5 12h101q16 0 27 -12t11 -29v-1044q0 -17 -11 -29t-27 -12h-103q-16 0 -27.5 12t-11.5 29v39q-90 -49 -158.5 -71.5 t-166.5 -22.5q-357 0 -357 426zM272 1581q0 14 23 14h135q7 0 13 -1.5t9.5 -2t8 -5t6 -5.5t7.5 -7.5t7 -8.5l199 -254q8 -8 8 -21q0 -14 -18 -14h-111q-8 0 -13.5 1t-10.5 5l-7.5 6t-8 9.5t-7.5 9.5l-231 258q-9 9 -9 16z" />
<glyph unicode="&#xfa;" horiz-adv-x="1140" d="M139 412v673q0 17 12.5 29t28.5 12h99q16 0 28 -12t12 -29v-673q0 -140 50 -205.5t176 -65.5q70 0 134.5 21t141.5 59v864q0 17 12.5 29t28.5 12h101q16 0 27 -12t11 -29v-1044q0 -17 -11 -29t-27 -12h-103q-16 0 -27.5 12t-11.5 29v39q-90 -49 -158.5 -71.5 t-166.5 -22.5q-357 0 -357 426zM473 1290q0 13 8 21l201 254q2 3 8 10t8 9t7.5 5.5t11.5 4.5t14 1h135q23 0 23 -14q0 -8 -8 -16l-232 -258q-2 -2 -7.5 -9.5t-8 -9.5l-7.5 -6t-10.5 -5t-13.5 -1h-110q-19 0 -19 14z" />
<glyph unicode="&#xfb;" horiz-adv-x="1140" d="M139 412v673q0 17 12.5 29t28.5 12h99q16 0 28 -12t12 -29v-673q0 -140 50 -205.5t176 -65.5q70 0 134.5 21t141.5 59v864q0 17 12.5 29t28.5 12h101q16 0 27 -12t11 -29v-1044q0 -17 -11 -29t-27 -12h-103q-16 0 -27.5 12t-11.5 29v39q-90 -49 -158.5 -71.5 t-166.5 -22.5q-357 0 -357 426zM231 1290q0 12 9 21l196 254q2 3 8 10t8 9t7.5 5.5t11.5 4.5t14 1h174q6 0 11 -0.5t9.5 -2.5t7 -3t7 -5t5.5 -5t6 -7t6 -7l194 -254q8 -8 8 -21q0 -14 -18 -14h-107q-8 0 -13.5 1t-10.5 5l-7.5 6t-8 9.5t-7.5 9.5l-168 198l-170 -198 q-2 -2 -7.5 -9.5t-8 -9.5l-7.5 -6t-10.5 -5t-13.5 -1h-106q-19 0 -19 14z" />
<glyph unicode="&#xfc;" horiz-adv-x="1140" d="M139 412v673q0 17 12.5 29t28.5 12h99q16 0 28 -12t12 -29v-673q0 -140 50 -205.5t176 -65.5q70 0 134.5 21t141.5 59v864q0 17 12.5 29t28.5 12h101q16 0 27 -12t11 -29v-1044q0 -17 -11 -29t-27 -12h-103q-16 0 -27.5 12t-11.5 29v39q-90 -49 -158.5 -71.5 t-166.5 -22.5q-357 0 -357 426zM309 1352v166q0 16 12.5 28.5t28.5 12.5h80q16 0 28.5 -12.5t12.5 -28.5v-166q0 -16 -12 -27.5t-29 -11.5h-80q-17 0 -29 11.5t-12 27.5zM668 1352v166q0 16 12 28.5t29 12.5h79q16 0 28.5 -12.5t12.5 -28.5v-166q0 -16 -12 -27.5t-29 -11.5 h-79q-17 0 -29 11.5t-12 27.5z" />
<glyph unicode="&#xfd;" horiz-adv-x="1093" d="M80 1092q0 34 37 34h112q24 0 35 -32l242 -889q7 -24 14.5 -34.5t24.5 -10.5h33l249 936q10 30 39 30h115q33 0 33 -34q0 -9 -2 -15l-338 -1179q-18 -61 -34 -101t-42 -80.5t-63 -66t-88 -39.5q-62 -17 -148 -17q-215 0 -215 52v75q0 33 39 33h6q96 -12 182 -12 q96 0 139 41.5t64 132.5l21 84h-29q-68 0 -99.5 35t-52.5 106l-272 936q-2 6 -2 15zM498 1290q0 13 8 21l201 254q2 3 8 10t8 9t7.5 5.5t11.5 4.5t14 1h135q22 0 22 -14q0 -8 -8 -16l-231 -258q-2 -2 -7.5 -9.5t-8 -9.5l-7.5 -6t-10.5 -5t-13.5 -1h-111q-18 0 -18 14z" />
<glyph unicode="&#xfe;" horiz-adv-x="1107" d="M139 -362v1861q0 17 12.5 29t28.5 12h99q16 0 28 -12t12 -29v-379q118 21 240 21q225 0 336 -133t111 -373v-148q0 -241 -110.5 -371t-336.5 -130q-108 0 -240 22v-370q0 -17 -11 -28t-27 -11h-105q-16 0 -26.5 11t-10.5 28zM319 158q103 -21 240 -21q76 0 129 24.5 t82.5 72.5t42 109t12.5 144v148q0 82 -13 143.5t-42.5 110.5t-82.5 74.5t-128 25.5q-137 0 -240 -20v-811z" />
<glyph unicode="&#xff;" horiz-adv-x="1093" d="M80 1092q0 34 37 34h112q24 0 35 -32l242 -889q7 -24 14.5 -34.5t24.5 -10.5h33l249 936q10 30 39 30h115q33 0 33 -34q0 -9 -2 -15l-338 -1179q-18 -61 -34 -101t-42 -80.5t-63 -66t-88 -39.5q-62 -17 -148 -17q-215 0 -215 52v75q0 33 39 33h6q96 -12 182 -12 q96 0 139 41.5t64 132.5l21 84h-29q-68 0 -99.5 35t-52.5 106l-272 936q-2 6 -2 15zM307 1352v166q0 16 12.5 28.5t28.5 12.5h80q16 0 28.5 -12.5t12.5 -28.5v-166q0 -16 -12 -27.5t-29 -11.5h-80q-17 0 -29 11.5t-12 27.5zM666 1352v166q0 16 12 28.5t29 12.5h79 q16 0 28.5 -12.5t12.5 -28.5v-166q0 -16 -12 -27.5t-29 -11.5h-79q-17 0 -29 11.5t-12 27.5z" />
<glyph unicode="&#x152;" horiz-adv-x="2013" d="M123 629v264q0 303 138.5 473t416.5 170q268 0 412 -168q90 168 391 168q282 0 399 -18q21 -5 21 -29v-96q0 -25 -23 -25h-395q-53 0 -89.5 -4t-70.5 -15.5t-54.5 -35t-28.5 -59.5q-9 -40 -9 -99v-285h629q16 0 28.5 -12t12.5 -29v-77q0 -16 -12.5 -28.5t-28.5 -12.5 h-629v-346q0 -92 26 -139t95 -63q45 -11 131 -11h395q23 0 23 -25v-96q0 -24 -21 -29q-124 -18 -399 -18q-149 0 -246.5 40t-144.5 130q-144 -168 -412 -168q-278 0 -416.5 170t-138.5 473zM311 629q0 -475 367 -475q101 0 173.5 34.5t114 99.5t60 148t18.5 191v274 q0 107 -19 189.5t-60.5 146.5t-113.5 97.5t-173 33.5q-367 0 -367 -475v-264z" />
<glyph unicode="&#x153;" horiz-adv-x="1841" d="M102 485v156q0 234 116 367t339 133q246 0 367 -168q116 168 364 168q220 0 335.5 -126.5t115.5 -352.5v-111q0 -45 -39 -45h-686v-21q0 -172 63.5 -257t220.5 -85q209 0 365 23h10q33 0 33 -29v-69q0 -23 -9.5 -33.5t-31.5 -14.5q-184 -34 -367 -34q-258 0 -376 168 q-121 -168 -365 -168q-223 0 -339 132.5t-116 366.5zM283 485q0 -342 274 -342q143 0 210 90.5t67 251.5v156q0 161 -66.5 251.5t-210.5 90.5q-274 0 -274 -342v-156zM1014 643h542v19q0 164 -61.5 242.5t-206.5 78.5q-143 0 -208.5 -81.5t-65.5 -239.5v-19z" />
<glyph unicode="&#x178;" horiz-adv-x="1193" d="M72 1493q0 29 34 29h125q10 0 21.5 -9.5t15.5 -19.5l283 -664q1 -3 5.5 -12t6 -11.5t5 -9t6 -9t6.5 -6t8.5 -4.5t9.5 -1t9.5 1t8.5 4.5t6.5 6t6 9t5 9t6 11.5t5.5 12l285 664q12 29 35 29h125q34 0 34 -29q0 -11 -6 -23l-317 -712q-26 -56 -50 -87.5t-61 -47.5v-582 q0 -17 -10.5 -29t-26.5 -12h-112q-16 0 -26.5 12t-10.5 29v582q-36 13 -60 45t-51 90l-315 712q-6 12 -6 23zM336 1681v166q0 17 12 29t29 12h80q17 0 29 -12t12 -29v-166q0 -16 -12 -27.5t-29 -11.5h-80q-17 0 -29 11.5t-12 27.5zM694 1681v166q0 17 12 29t29 12h80 q17 0 29 -12t12 -29v-166q0 -16 -12 -27.5t-29 -11.5h-80q-17 0 -29 11.5t-12 27.5z" />
<glyph unicode="&#x2c6;" horiz-adv-x="763" d="M41 1290q0 13 8 21l197 254q2 3 8 10t8 9t7.5 5.5t11.5 4.5t14 1h174q7 0 13 -1.5t9.5 -2t8 -5t6 -5.5t7.5 -7.5t7 -8.5l195 -254q8 -8 8 -21q0 -14 -18 -14h-107q-8 0 -13.5 1t-10.5 5l-7.5 6t-8 9.5t-7.5 9.5l-168 198l-170 -198q-2 -2 -7.5 -9.5t-8 -9.5l-7.5 -6 t-10.5 -5t-13.5 -1h-107q-18 0 -18 14z" />
<glyph unicode="&#x2dc;" horiz-adv-x="1009" d="M131 1333v43q0 105 49 164t146 59q61 0 123 -49l145 -114q39 -29 72 -29q36 0 48.5 21t12.5 69v47q0 14 10.5 24.5t24.5 10.5h63q14 0 23.5 -10.5t9.5 -24.5v-47q0 -109 -44.5 -162t-147.5 -53q-76 0 -131 43l-125 100q-8 6 -22 18t-19.5 15.5t-17 7.5t-25.5 4 q-37 0 -50.5 -23.5t-13.5 -70.5v-43q0 -14 -10.5 -24.5t-24.5 -10.5h-63q-14 0 -23.5 10.5t-9.5 24.5z" />
<glyph unicode="&#x2000;" horiz-adv-x="1003" />
<glyph unicode="&#x2001;" horiz-adv-x="2007" />
<glyph unicode="&#x2002;" horiz-adv-x="1003" />
<glyph unicode="&#x2003;" horiz-adv-x="2007" />
<glyph unicode="&#x2004;" horiz-adv-x="669" />
<glyph unicode="&#x2005;" horiz-adv-x="501" />
<glyph unicode="&#x2006;" horiz-adv-x="334" />
<glyph unicode="&#x2007;" horiz-adv-x="334" />
<glyph unicode="&#x2008;" horiz-adv-x="250" />
<glyph unicode="&#x2009;" horiz-adv-x="401" />
<glyph unicode="&#x200a;" horiz-adv-x="111" />
<glyph unicode="&#x2010;" horiz-adv-x="681" d="M98 559v80q0 16 11 26.5t28 10.5h408q39 0 39 -37v-80q0 -35 -39 -35h-408q-39 0 -39 35z" />
<glyph unicode="&#x2011;" horiz-adv-x="681" d="M98 559v80q0 16 11 26.5t28 10.5h408q39 0 39 -37v-80q0 -35 -39 -35h-408q-39 0 -39 35z" />
<glyph unicode="&#x2012;" horiz-adv-x="681" d="M98 559v80q0 16 11 26.5t28 10.5h408q39 0 39 -37v-80q0 -35 -39 -35h-408q-39 0 -39 35z" />
<glyph unicode="&#x2013;" horiz-adv-x="870" d="M88 539v79q0 16 11 26.5t28 10.5h618q17 0 28 -10.5t11 -26.5v-79q0 -35 -39 -35h-618q-39 0 -39 35z" />
<glyph unicode="&#x2014;" horiz-adv-x="1138" d="M88 539v79q0 16 11 26.5t28 10.5h885q17 0 28 -10.5t11 -26.5v-79q0 -35 -39 -35h-885q-39 0 -39 35z" />
<glyph unicode="&#x2018;" horiz-adv-x="380" d="M59 1098q0 8 2 16l125 387q10 39 39 39h78q19 0 19 -20q0 -7 -3 -19l-75 -387q-8 -39 -41 -39h-121q-23 0 -23 23z" />
<glyph unicode="&#x2019;" horiz-adv-x="380" d="M59 1096q0 10 2 18l76 387q7 39 41 39h121q23 0 23 -22q0 -5 -3 -17l-124 -387q-11 -39 -39 -39h-78q-19 0 -19 21z" />
<glyph unicode="&#x201a;" horiz-adv-x="380" d="M41 -176q0 8 2 14l117 387q12 39 41 39h118q27 0 27 -22q0 -6 -4 -17l-154 -387q-1 -2 -3.5 -8.5t-3.5 -9t-3.5 -7t-4.5 -6t-5.5 -4t-8 -3.5t-9.5 -1h-84q-25 0 -25 25z" />
<glyph unicode="&#x201c;" horiz-adv-x="688" d="M59 1098q0 8 2 16l125 387q10 39 39 39h78q19 0 19 -20q0 -7 -3 -19l-75 -387q-8 -39 -41 -39h-121q-23 0 -23 23zM367 1098q0 8 2 16l125 387q10 39 38 39h78q19 0 19 -20q0 -11 -2 -19l-76 -387q-7 -39 -41 -39h-121q-22 0 -22 23z" />
<glyph unicode="&#x201d;" horiz-adv-x="688" d="M59 1096q0 10 2 18l76 387q7 39 41 39h121q23 0 23 -22q0 -5 -3 -17l-124 -387q-11 -39 -39 -39h-78q-19 0 -19 21zM367 1096q0 10 2 18l75 387q8 39 41 39h121q23 0 23 -22q0 -9 -2 -17l-125 -387q-10 -39 -39 -39h-78q-18 0 -18 21z" />
<glyph unicode="&#x201e;" horiz-adv-x="688" d="M41 -176q0 8 2 14l117 387q12 39 41 39h118q27 0 27 -22q0 -6 -4 -17l-154 -387q-1 -2 -3.5 -8.5t-3.5 -9t-3.5 -7t-4.5 -6t-5.5 -4t-8 -3.5t-9.5 -1h-84q-25 0 -25 25zM410 -176q0 8 2 14l116 387q12 39 41 39h119q27 0 27 -22q0 -6 -4 -17l-154 -387q-1 -2 -3 -7 t-2.5 -7t-2.5 -6t-3.5 -5.5t-3.5 -4.5t-4.5 -4t-5.5 -2.5t-6.5 -2t-7.5 -0.5h-84q-24 0 -24 25z" />
<glyph unicode="&#x2022;" horiz-adv-x="856" d="M102 752q0 107 56 185t143 115q59 25 127 25q108 0 185.5 -55.5t114.5 -142.5q26 -61 26 -127q0 -107 -56 -185t-143 -115q-61 -26 -127 -26q-107 0 -185 56t-115 143q-26 61 -26 127z" />
<glyph unicode="&#x2026;" horiz-adv-x="1241" d="M119 39v192q0 16 12 27.5t29 11.5h98q16 0 27.5 -11t11.5 -28v-192q0 -17 -11.5 -28t-27.5 -11h-98q-17 0 -29 11.5t-12 27.5zM532 39v192q0 17 11 28t28 11h99q17 0 29 -11.5t12 -27.5v-192q0 -16 -12 -27.5t-29 -11.5h-99q-17 0 -28 11t-11 28zM944 39v192 q0 16 12 27.5t29 11.5h98q17 0 28 -11t11 -28v-192q0 -17 -11 -28t-28 -11h-98q-17 0 -29 11.5t-12 27.5z" />
<glyph unicode="&#x202f;" horiz-adv-x="401" />
<glyph unicode="&#x2039;" horiz-adv-x="724" d="M61 567q0 35 23 58l346 346q20 20 43 20h119q22 0 22 -18q0 -15 -12 -27l-364 -379l364 -379q12 -12 12 -26q0 -19 -22 -19h-119q-22 0 -43 21l-346 346q-23 23 -23 57z" />
<glyph unicode="&#x203a;" horiz-adv-x="724" d="M111 162q0 14 12 26l364 379l-364 379q-12 12 -12 27q0 18 22 18h119q23 0 43 -20l346 -346q23 -23 23 -58q0 -34 -23 -57l-346 -346q-21 -21 -43 -21h-119q-22 0 -22 19z" />
<glyph unicode="&#x205f;" horiz-adv-x="501" />
<glyph unicode="&#x20ac;" d="M106 584v57q0 17 12 29t29 12h66v166h-66q-17 0 -29 12t-12 29v57q0 16 12 28.5t29 12.5h68q20 258 166.5 403.5t404.5 145.5q44 0 91.5 -4t69 -6.5t82 -12t69.5 -10.5q32 -4 32 -26v-105q0 -13 -5 -17.5t-19 -4.5h-6q-261 18 -312 18q-176 0 -272 -101.5t-113 -279.5 h594q35 0 35 -33q0 -2 -1 -4t-1 -4l-14 -57q-11 -41 -41 -41h-576v-166h527q30 0 30 -31q0 -2 -1 -4.5t-1 -5.5l-14 -57q-11 -41 -41 -41h-498q17 -183 112.5 -286t274.5 -103q105 0 306 16h8q33 0 33 -33v-84q0 -13 -6.5 -22t-19.5 -14t-23.5 -7.5t-28.5 -5t-24 -3.5 q-81 -15 -247 -15q-180 0 -305.5 76t-197.5 211q-58 109 -68 270h-68q-17 0 -29 12.5t-12 28.5z" />
<glyph unicode="&#x2122;" horiz-adv-x="1617" d="M51 1440v51q0 13 10 22t23 9h530q13 0 24 -9t11 -22v-51q0 -29 -35 -29h-198v-690q0 -13 -10 -23t-23 -10h-66q-13 0 -21.5 10t-8.5 23v690h-203q-33 0 -33 29zM723 709v759q0 37 31 39q191 21 372 21q79 0 134.5 -6t107 -22t85.5 -49t53 -83q24 -63 24 -168v-491 q0 -21 -21 -21h-84q-20 0 -20 21v491q0 95 -18 140.5t-80 60.5q-41 10 -117 10v-702q0 -21 -21 -21h-86q-20 0 -20 21v702q-85 0 -217 -12v-690q0 -21 -19 -21h-84q-20 0 -20 21z" />
<glyph unicode="&#x25fc;" horiz-adv-x="1126" d="M0 0v1126h1126v-1126h-1126z" />
<glyph unicode="&#xfb01;" horiz-adv-x="1271" d="M51 1034v56q0 16 11 26t28 10h199v148q0 149 68.5 217t217.5 68q39 0 66 -5l49 -8q39 -6 39 -33v-67q0 -31 -37 -31h-98q-75 0 -100 -30t-25 -111v-148h215q17 0 28 -10t11 -26v-80q0 -35 -39 -35h-215v-934q0 -17 -11.5 -29t-27.5 -12h-100q-16 0 -28.5 12t-12.5 29v934 l-199 22q-39 5 -39 37zM926 1348v163q0 17 12 29t29 12h104q17 0 29 -12t12 -29v-163q0 -16 -12 -28.5t-29 -12.5h-104q-17 0 -29 12.5t-12 28.5zM928 41v1044q0 17 12 29t29 12h98q17 0 29 -12t12 -29v-1044q0 -17 -12 -29t-29 -12h-98q-17 0 -29 12t-12 29z" />
<glyph unicode="&#xfb02;" horiz-adv-x="1267" d="M51 1034v56q0 16 11 26t28 10h199v148q0 149 68.5 217t217.5 68q39 0 66 -5l49 -8q39 -6 39 -33v-67q0 -31 -37 -31h-98q-75 0 -100 -30t-25 -111v-148h215q17 0 28 -10t11 -26v-80q0 -35 -39 -35h-215v-934q0 -17 -11.5 -29t-27.5 -12h-100q-16 0 -28.5 12t-12.5 29v934 l-199 22q-39 5 -39 37zM928 41v1460q0 17 10.5 28t26.5 11h106q16 0 26.5 -11t10.5 -28v-1460q0 -17 -10.5 -29t-26.5 -12h-106q-16 0 -26.5 12t-10.5 29z" />
</font>
</defs>
</svg>
